<svg width="25" height="24" viewBox="0 0 25 24" fill="none" xmlns="http://www.w3.org/2000/svg">
<path d="M16.8907 10.7071C17.2812 10.3166 17.2812 9.68342 16.8907 9.29289C16.5002 8.90237 15.867 8.90237 15.4765 9.29289L16.8907 10.7071ZM12.1836 14L11.4765 14.7071C11.867 15.0976 12.5002 15.0976 12.8907 14.7071L12.1836 14ZM8.8907 9.29289C8.50018 8.90237 7.86701 8.90237 7.47649 9.29289C7.08596 9.68342 7.08596 10.3166 7.47649 10.7071L8.8907 9.29289ZM15.4765 9.29289L11.4765 13.2929L12.8907 14.7071L16.8907 10.7071L15.4765 9.29289ZM12.8907 13.2929L8.8907 9.29289L7.47649 10.7071L11.4765 14.7071L12.8907 13.2929Z" fill="#14181F"/>
</svg>
