<svg width="176" height="24" viewBox="0 0 176 24" fill="none" xmlns="http://www.w3.org/2000/svg">
<path d="M0 1.84625V22.1539C0 23.077 0.923077 23.8462 1.84615 23.6924C5.07692 22.9232 8.30769 22.4616 11.5385 22.0001C12.3077 21.8462 12.9231 21.2309 12.9231 20.4616V3.53856C12.9231 2.76933 12.3077 2.15394 11.5385 2.00009C8.30769 1.6924 5.07692 1.07702 1.84615 0.307787C0.923077 0.153941 0 0.923171 0 1.84625Z" fill="url(#paint0_linear_351_1029)"/>
<path d="M41.6922 0.307787C38.4614 1.07702 35.2306 1.53856 31.9998 2.00009C31.2306 2.15394 30.6152 2.76933 30.6152 3.53856V20.6155C30.6152 21.3847 31.2306 22.0001 31.9998 22.1539C35.2306 22.4616 38.4614 23.077 41.6922 23.8462C42.6152 24.0001 43.5383 23.3847 43.5383 22.3078V1.84625C43.5383 0.923171 42.6152 0.153941 41.6922 0.307787Z" fill="url(#paint1_linear_351_1029)"/>
<path d="M14.3076 3.84608V19.9999C14.3076 20.923 15.0768 21.5384 15.8461 21.5384C17.8461 21.3845 19.6922 21.3845 21.5384 21.3845C23.5384 21.3845 25.3845 21.3845 27.3845 21.5384C28.3076 21.5384 28.923 20.923 28.923 19.9999V3.84608C28.923 2.923 28.1538 2.30762 27.3845 2.30762C25.3845 2.46146 23.3845 2.46146 21.5384 2.46146C19.6922 2.46146 17.6922 2.46146 15.8461 2.30762C15.0768 2.30762 14.3076 3.07685 14.3076 3.84608Z" fill="url(#paint2_linear_351_1029)"/>
<path d="M52.0002 4.15385C52.0002 3.84615 52.154 3.69231 52.3078 3.53846C52.4617 3.38462 52.7694 3.23077 53.0771 3.07692L56.154 2H56.3078H56.4617C56.7694 2 57.0771 2.15385 57.0771 2.30769C57.2309 2.46154 57.2309 2.76923 57.2309 3.07692V6.76923H59.0771C59.3848 6.76923 59.5386 6.92308 59.8463 7.07692C59.8463 7.07692 60.0002 7.38462 60.0002 7.69231V10.3077C60.0002 10.6154 59.8463 10.9231 59.6925 11.0769C59.5386 11.2308 59.2309 11.3846 58.9232 11.3846H57.0771V22.6154C57.0771 22.9231 56.9232 23.2308 56.7694 23.3846C56.6155 23.5385 56.3078 23.6923 56.0002 23.6923H52.9232C52.3078 23.6923 51.8463 23.3846 51.8463 22.6154V11.3846H50.4617C49.8463 11.3846 49.3848 11.0769 49.3848 10.3077V7.69231C49.3848 7.07692 49.6925 6.61539 50.4617 6.61539H51.8463L52.0002 4.15385Z" fill="white"/>
<path d="M61.5386 15.2307C61.5386 14.4614 61.6924 13.6922 61.8463 12.923C62.0001 12.1537 62.3078 11.5383 62.7693 10.7691C63.077 10.1537 63.5386 9.53835 64.154 9.07681C64.6155 8.46143 65.077 7.99989 65.8463 7.6922C66.6155 7.3845 67.2309 7.07681 68.0001 6.76912C68.7693 6.61527 69.5386 6.46143 70.3078 6.46143C71.5386 6.46143 72.6155 6.61527 73.6924 7.07681C74.7693 7.53835 75.6924 8.15373 76.4617 8.92296C77.2309 9.6922 77.8463 10.6153 78.3078 11.6922C78.7693 12.7691 78.9232 13.846 78.9232 15.0768C78.9232 15.846 78.7693 16.6153 78.6155 17.3845C78.4617 18.1537 78.154 18.7691 77.6924 19.5383C77.3847 20.1537 76.9232 20.7691 76.3078 21.2307C75.8463 21.6922 75.2309 22.1537 74.6155 22.6153C74.0001 22.923 73.2309 23.2307 72.4617 23.5383C71.6924 23.6922 70.9232 23.846 70.154 23.846C69.3847 23.846 68.6155 23.6922 67.8463 23.5383C67.077 23.3845 66.4617 23.0768 65.6924 22.6153C64.9232 22.1537 64.4616 21.846 64.0001 21.2307C63.5386 20.7691 63.077 20.1537 62.6155 19.5383C62.3078 18.923 62.0001 18.1537 61.6924 17.3845C61.5386 16.7691 61.5386 15.9999 61.5386 15.2307ZM66.3078 15.2307C66.3078 15.846 66.4617 16.3076 66.6155 16.923C66.7693 17.3845 67.077 17.846 67.3847 18.3076C67.6924 18.6153 68.154 18.923 68.6155 19.2307C69.077 19.3845 69.6924 19.5383 70.154 19.5383C70.7693 19.5383 71.2309 19.3845 71.6924 19.2307C72.154 19.0768 72.6155 18.7691 72.9232 18.3076C73.2309 17.9999 73.5386 17.5383 73.6924 16.923C73.8463 16.4614 74.0001 15.846 74.0001 15.2307C74.0001 14.6153 73.8463 14.1537 73.6924 13.5383C73.5386 13.0768 73.2309 12.6153 72.9232 12.1537C72.6155 11.6922 72.154 11.3845 71.6924 11.2307C71.2309 11.0768 70.7693 10.923 70.154 10.923C69.5386 10.923 69.077 11.0768 68.6155 11.2307C68.154 11.5383 67.6924 11.846 67.3847 12.3076C67.077 12.7691 66.7693 13.0768 66.6155 13.6922C66.4617 14.3076 66.3078 14.6153 66.3078 15.2307Z" fill="white"/>
<path d="M97.3848 23.3845C97.2309 23.5383 97.0771 23.5383 97.0771 23.5383C96.9232 23.5383 96.7694 23.5383 96.7694 23.5383H94.7694C94.6155 23.5383 94.4617 23.5383 94.3078 23.3845C94.154 23.3845 94.154 23.2306 94.0002 23.0768C93.8463 23.2306 93.8463 23.2306 93.6925 23.0768C93.6925 22.9229 93.5386 22.7691 93.5386 22.6152L93.2309 21.3845C93.0771 21.6922 92.9232 21.9998 92.6155 22.3075C92.3078 22.6152 91.8463 22.9229 91.3848 23.0768C90.9232 23.3845 90.4617 23.5383 89.8463 23.6922C89.2309 23.846 88.6155 23.9998 87.8463 23.9998C86.7694 23.9998 86.0001 23.846 85.0771 23.3845C84.3078 22.9229 83.6925 22.4614 83.0771 21.846C82.6155 21.2306 82.154 20.3075 81.8463 19.5383C81.5386 18.6152 81.3848 17.6922 81.3848 16.6152V7.69216C81.3848 7.38446 81.3848 7.07677 81.5386 6.92293C81.6925 6.76908 81.8463 6.61523 82.3078 6.61523H85.3848C85.6925 6.61523 86.0002 6.61523 86.154 6.76908C86.3078 6.92293 86.3078 7.07677 86.3078 7.53831V16.3075C86.3078 16.6152 86.3078 17.0768 86.4617 17.3845C86.6155 17.6922 86.7694 17.9998 87.0771 18.3075C87.3848 18.6152 87.6925 18.7691 88.0002 18.9229C88.3078 19.0768 88.6155 19.0768 89.0771 19.0768C89.3848 19.0768 89.6925 19.0768 90.154 18.9229C90.4617 18.7691 90.9232 18.6152 91.2309 18.4614C91.5386 18.3075 91.8463 17.9998 92.0002 17.5383C92.154 17.2306 92.3078 16.7691 92.3078 16.3075V7.69216C92.3078 7.53831 92.3078 7.38446 92.4617 7.23062C92.4617 7.07677 92.6155 6.92293 92.7694 6.92293C92.9232 6.92293 92.9232 6.76908 93.0771 6.76908C93.2309 6.76908 93.2309 6.76908 93.3848 6.76908H96.4617C96.7694 6.76908 97.0771 6.92293 97.2309 7.07677C97.3848 7.23062 97.5386 7.53831 97.5386 7.846V22.7691C97.5386 22.9229 97.5386 23.0768 97.3848 23.2306C97.5386 23.2306 97.3848 23.3845 97.3848 23.3845Z" fill="white"/>
<path d="M100.923 7.69223C100.923 7.53839 100.923 7.38454 101.077 7.23069C101.077 7.07685 101.231 7.07685 101.385 6.923L101.539 6.76916C101.693 6.76916 101.847 6.76916 101.847 6.76916H103.847C104 6.76916 104.308 6.76916 104.308 6.923C104.462 7.07685 104.616 7.23069 104.616 7.38454C104.77 7.53839 104.77 7.84608 104.923 7.99992C104.923 8.30762 105.077 8.46146 105.231 8.76916C105.539 8.46146 105.693 8.15377 106 7.84608C106.308 7.53839 106.616 7.38454 106.923 7.07685C107.231 6.923 107.539 6.61531 107.847 6.46146C108.154 6.30762 108.616 6.30762 109.077 6.30762C109.539 6.30762 110 6.30762 110.308 6.46146C110.616 6.46146 111.077 6.61531 111.385 6.76916C111.693 6.923 112 7.07685 112.462 7.23069C112.77 7.38454 113.231 7.69223 113.539 7.99992C113.847 8.15377 114.154 8.46146 114.154 8.76916C114.154 8.923 114.154 9.23069 114 9.38454L112.77 11.3845C112.462 11.6922 112.308 11.8461 111.847 11.8461C111.693 11.8461 111.539 11.8461 111.231 11.6922C110.923 11.3845 110.462 11.0768 110 10.923C109.539 10.7692 109.077 10.6153 108.616 10.6153C108.308 10.6153 108 10.6153 107.693 10.7692C107.385 10.923 107.231 11.0768 106.923 11.2307C106.77 11.3845 106.462 11.6922 106.308 11.8461C106.154 12.1538 106 12.3076 105.693 12.6153V22.3076C105.693 22.6153 105.539 22.923 105.385 23.0768C105.231 23.2307 104.923 23.3845 104.616 23.3845H101.539C100.77 23.3845 100.462 23.0768 100.462 22.3076V7.69223H100.923Z" fill="white"/>
<path d="M116.308 1.07692C116.308 0.769231 116.461 0.461538 116.615 0.307692C116.615 0.153846 116.923 0 117.231 0H120.308C120.615 0 120.923 0.153846 121.077 0.307692C121.231 0.461538 121.385 0.769231 121.385 1.07692V3.69231C121.385 3.84615 121.385 3.84615 121.385 4C121.385 4.15385 121.231 4.30769 121.231 4.30769C121.077 4.46154 120.923 4.61538 120.769 4.61538C120.615 4.61538 120.461 4.76923 120.308 4.76923H117.231C116.615 4.76923 116.308 4.46154 116.308 3.69231V1.07692ZM116.308 7.84615C116.308 7.53846 116.461 7.38461 116.615 7.07692C116.769 6.92308 117.077 6.76923 117.385 6.76923H120.461C120.615 6.76923 120.615 6.76923 120.769 6.76923C120.923 6.76923 121.077 6.92308 121.077 6.92308C121.231 7.07692 121.231 7.07692 121.385 7.23077C121.385 7.38461 121.538 7.53846 121.538 7.69231V22.6154C121.538 22.9231 121.385 23.2308 121.231 23.3846C121.077 23.5385 120.769 23.6923 120.461 23.6923H117.385C116.769 23.6923 116.461 23.3846 116.461 22.6154V7.84615H116.308Z" fill="white"/>
<path d="M127.077 18.4615C127.385 18.7692 127.538 18.923 127.846 19.0768C128.154 19.2307 128.462 19.3845 128.615 19.5384C128.923 19.6922 129.077 19.6922 129.231 19.6922C129.385 19.6922 129.538 19.6922 129.692 19.6922C129.846 19.6922 130 19.6922 130.308 19.6922C130.615 19.6922 130.769 19.6922 131.077 19.5384C131.385 19.3845 131.538 19.3845 131.692 19.2307C131.846 19.0768 132 18.923 132 18.6153C132 18.3076 132 18.1538 131.846 17.9999C131.692 17.8461 131.538 17.6922 131.385 17.6922C131.231 17.5384 130.923 17.5384 130.769 17.3845C130.462 17.2307 130.154 17.2307 129.846 17.0768C128.769 16.7692 127.846 16.4615 127.231 15.9999C126.462 15.5384 126 15.0768 125.538 14.6153C125.077 14.1538 124.923 13.5384 124.615 13.0768C124.462 12.4615 124.308 11.8461 124.308 11.2307C124.308 10.4615 124.462 9.84608 124.769 9.23069C125.077 8.61531 125.538 8.15377 126 7.69223C126.615 7.23069 127.231 6.923 128 6.61531C128.769 6.30762 129.538 6.30762 130.462 6.30762C131.077 6.30762 131.538 6.30762 132 6.46146C132.462 6.61531 132.923 6.76916 133.385 6.923C133.846 7.07685 134.308 7.38454 134.615 7.69223C135.077 7.99992 135.385 8.30762 135.846 8.76916C136 8.923 136 9.07685 136.154 9.23069C136.154 9.38454 136 9.53839 135.846 9.69223C135.538 9.99992 135.231 10.3076 134.923 10.4615C134.615 10.7692 134.308 11.0768 134 11.3845C133.846 11.5384 133.846 11.5384 133.692 11.5384C133.538 11.5384 133.538 11.5384 133.385 11.5384C133.231 11.5384 133.231 11.5384 133.077 11.3845C132.923 11.2307 132.923 11.2307 132.769 11.2307C132.769 11.0768 132.308 10.923 132 10.7692C131.538 10.6153 131.231 10.6153 130.923 10.6153C130.462 10.6153 130.154 10.6153 129.846 10.7692C129.538 10.923 129.538 11.0768 129.538 11.5384C129.538 11.8461 129.692 11.9999 129.846 12.1538C129.846 12.1538 130 12.3076 130.308 12.3076C130.461 12.4615 130.769 12.4615 131.077 12.4615C131.385 12.4615 131.538 12.6153 131.846 12.6153C132.615 12.923 133.385 13.0768 134 13.3845C134.615 13.6922 135.231 13.9999 135.692 14.4615C136.154 14.923 136.615 15.3845 136.769 15.9999C137.077 16.6153 137.231 17.3845 137.231 18.3076C137.231 19.2307 137.077 19.9999 136.769 20.6153C136.462 21.3845 136 21.8461 135.385 22.3076C134.769 22.7692 134 23.0768 133.231 23.3845C132.462 23.6922 131.538 23.6922 130.462 23.6922C129.846 23.6922 129.385 23.6922 128.769 23.5384C128.154 23.3845 127.692 23.2307 127.077 23.0768C126.615 22.923 126 22.6153 125.538 22.3076C125.077 21.9999 124.615 21.5384 124.308 21.0768C124.154 20.923 124.154 20.7692 124.154 20.6153C124.154 20.4615 124.154 20.3076 124.154 20.1538C124.154 19.9999 124.154 19.8461 124.308 19.8461C124.308 19.6922 124.462 19.6922 124.615 19.5384L126.308 17.8461C126.462 17.6922 126.769 17.5384 126.923 17.6922C126.615 17.9999 126.923 18.1538 127.077 18.4615Z" fill="white"/>
<path d="M154.308 21.6922C153.539 22.4614 152.615 22.923 151.692 23.3845C150.769 23.846 149.692 23.9999 148.615 23.9999C147.385 23.9999 146.308 23.846 145.231 23.3845C144.154 22.923 143.231 22.3076 142.308 21.5383C141.539 20.7691 140.769 19.846 140.308 18.7691C139.846 17.6922 139.539 16.6153 139.539 15.2307C139.539 14.4614 139.692 13.6922 139.846 12.923C140 12.1537 140.308 11.5383 140.616 10.7691C140.923 10.1537 141.385 9.53835 141.846 9.07681C142.308 8.61527 142.923 8.15373 143.539 7.6922C144.154 7.3845 144.769 7.07681 145.539 6.76912C146.308 6.61527 147.077 6.46143 147.846 6.46143C148.615 6.46143 149.231 6.61527 150 6.76912C150.769 6.92296 151.385 7.23066 152 7.53835C152.616 7.84604 153.231 8.30758 153.692 8.76912C154.154 9.23066 154.615 9.84604 154.923 10.4614C155.231 11.0768 155.539 11.6922 155.846 12.3076C156 12.923 156.154 13.6922 156.154 14.3076C156.154 14.7691 156.154 15.0768 156.154 15.3845C156.154 15.6922 156 15.846 156 16.1537C155.846 16.3076 155.692 16.4614 155.385 16.4614C155.077 16.4614 154.615 16.6153 154.154 16.6153H144.616C144.769 17.2307 144.923 17.6922 145.231 17.9999C145.539 18.3076 145.846 18.6153 146.154 18.923C146.462 19.0768 146.923 19.3845 147.231 19.3845C147.692 19.5383 148 19.5383 148.308 19.5383C148.616 19.5383 148.923 19.5383 149.231 19.3845C149.539 19.3845 149.846 19.2307 150.154 19.0768C150.462 18.923 150.769 18.7691 151.077 18.6153C151.385 18.4614 151.539 18.3076 151.692 18.1537C151.846 17.9999 152 17.9999 152 17.846C152.154 17.846 152.154 17.6922 152.308 17.6922C152.462 17.6922 152.615 17.6922 152.615 17.846C152.769 17.9999 152.923 17.9999 153.077 18.1537L154.462 19.6922C154.616 19.846 154.615 19.846 154.615 19.9999C154.615 20.1537 154.615 20.1537 154.615 20.3076C154.615 20.4614 154.616 20.6153 154.462 20.7691C154.462 21.3845 154.308 21.5383 154.308 21.6922ZM147.846 10.6153C147.539 10.6153 147.231 10.6153 146.769 10.7691C146.462 10.923 146.154 11.0768 145.846 11.3845C145.539 11.6922 145.231 11.846 145.077 12.1537C144.923 12.3076 144.769 12.6153 144.616 12.923H151.385C151.231 12.6153 151.077 12.3076 150.769 11.9999C150.616 11.6922 150.308 11.3845 150 11.2307C149.692 11.0768 149.385 10.7691 149.077 10.7691C148.769 10.6153 148.308 10.6153 147.846 10.6153Z" fill="white"/>
<path d="M171.077 22.0001C170.769 22.3078 170.615 22.4616 170.308 22.7693C170 23.077 169.692 23.2308 169.231 23.3847C168.923 23.5385 168.461 23.6924 168 23.8462C167.538 24.0001 167.077 24.0001 166.615 24.0001C165.385 24.0001 164.308 23.8462 163.231 23.3847C162.154 22.9231 161.385 22.3078 160.615 21.5385C159.846 20.7693 159.385 19.8462 158.923 18.7693C158.461 17.6924 158.308 16.6155 158.308 15.3847C158.308 14.1539 158.461 12.9232 158.923 12.0001C159.385 10.9232 159.846 10.0001 160.615 9.23084C161.385 8.46161 162.154 7.84623 163.231 7.38469C164.308 6.92315 165.385 6.76931 166.615 6.76931C167.077 6.76931 167.538 6.76931 168 6.92315C168.461 7.077 168.769 7.077 169.077 7.23084C169.385 7.38469 169.692 7.53854 170 7.84623C170.308 8.00007 170.615 8.30777 170.769 8.61546V2.76931C170.769 2.46161 170.923 2.30777 171.077 2.00007C171.231 1.84623 171.538 1.69238 171.846 1.69238H174.923C175.077 1.69238 175.231 1.69238 175.231 1.69238C175.385 1.69238 175.538 1.84623 175.538 1.84623C175.692 2.00008 175.692 2.00008 175.846 2.15392C175.846 2.30777 176 2.46161 176 2.61546V22.6155C176 23.2308 175.692 23.6924 174.923 23.6924H172.308C172.154 23.6924 172 23.6924 171.846 23.6924C171.692 23.6924 171.692 23.5385 171.538 23.5385C171.538 23.3847 171.385 23.3847 171.385 23.2308C171.385 23.077 171.231 22.9232 171.231 22.7693L171.077 22.0001ZM163.231 15.2308C163.231 15.8462 163.385 16.3078 163.538 16.9232C163.692 17.3847 164 17.8462 164.308 18.3078C164.615 18.6155 165.077 18.9232 165.538 19.2308C166 19.3847 166.615 19.5385 167.077 19.5385C167.692 19.5385 168.154 19.3847 168.615 19.2308C169.077 19.077 169.538 18.7693 170 18.3078C170.308 18.0001 170.615 17.5385 170.923 17.077C171.077 16.6155 171.231 16.0001 171.231 15.5385V15.2308C171.231 14.6155 171.077 14.1539 170.923 13.5385C170.769 13.077 170.461 12.6155 170 12.1539C169.692 11.6924 169.231 11.3847 168.615 11.2308C168.154 11.077 167.538 10.9232 166.923 10.9232C166.308 10.9232 165.846 11.077 165.385 11.2308C164.923 11.3847 164.461 11.6924 164.154 12.1539C163.846 12.6155 163.538 12.9232 163.385 13.5385C163.231 14.1539 163.231 14.6155 163.231 15.2308Z" fill="white"/>
<defs>
<linearGradient id="paint0_linear_351_1029" x1="-3.83385" y1="11.9922" x2="45.4646" y2="12.1952" gradientUnits="userSpaceOnUse">
<stop stop-color="white" stop-opacity="0.4"/>
<stop offset="1" stop-color="white"/>
</linearGradient>
<linearGradient id="paint1_linear_351_1029" x1="-3.83323" y1="11.8253" x2="45.4651" y2="12.0282" gradientUnits="userSpaceOnUse">
<stop stop-color="white" stop-opacity="0.4"/>
<stop offset="1" stop-color="white"/>
</linearGradient>
<linearGradient id="paint2_linear_351_1029" x1="-3.83346" y1="11.9047" x2="45.4648" y2="12.1075" gradientUnits="userSpaceOnUse">
<stop stop-color="white" stop-opacity="0.4"/>
<stop offset="1" stop-color="white"/>
</linearGradient>
</defs>
</svg>
