<svg width="172" height="22" viewBox="0 0 172 22" fill="none" xmlns="http://www.w3.org/2000/svg">
<path d="M1.09478e-07 1.65077V19.691C0.000194596 19.8919 0.0498391 20.0901 0.145286 20.2712C0.240732 20.4522 0.379551 20.6114 0.551509 20.7371C0.723467 20.8629 0.924194 20.9518 1.1389 20.9975C1.3536 21.0432 1.57683 21.0444 1.79212 21.0011C4.91161 20.3705 8.06527 19.8895 11.2401 19.5599C11.5985 19.5217 11.9289 19.3646 12.1684 19.1187C12.4079 18.8729 12.5398 18.5553 12.5388 18.2266V3.11519C12.5398 2.78648 12.4079 2.46893 12.1684 2.22305C11.9289 1.97717 11.5985 1.82015 11.2401 1.78192C8.06537 1.45166 4.91175 0.970602 1.79212 0.340716C1.5768 0.297135 1.35347 0.298165 1.13865 0.343738C0.923822 0.389312 0.722989 0.478258 0.55096 0.604013C0.378931 0.729768 0.240097 0.889119 0.144737 1.07029C0.0493767 1.25147 -8.4933e-05 1.44985 1.09478e-07 1.65077V1.65077Z" fill="url(#paint0_linear_540_1143)"/>
<path d="M40.6875 0.321605C37.5681 0.954599 34.4145 1.43884 31.2396 1.77236C30.8817 1.81062 30.5518 1.96755 30.3128 2.2132C30.0738 2.45886 29.9425 2.77605 29.9439 3.10427V18.2376C29.9425 18.5658 30.0738 18.883 30.3128 19.1286C30.5518 19.3743 30.8817 19.5312 31.2396 19.5695C34.4145 19.903 37.5681 20.3872 40.6875 21.0202C40.9033 21.0652 41.1274 21.0653 41.3432 21.0205C41.559 20.9756 41.7609 20.887 41.9338 20.7612C42.1068 20.6355 42.2464 20.4757 42.3422 20.294C42.438 20.1122 42.4875 19.9132 42.4872 19.7115V1.6303C42.4875 1.42868 42.438 1.22959 42.3422 1.04784C42.2464 0.866091 42.1068 0.706373 41.9338 0.580588C41.7609 0.454802 41.559 0.366186 41.3432 0.321344C41.1274 0.276503 40.9033 0.276596 40.6875 0.321605V0.321605Z" fill="url(#paint1_linear_540_1143)"/>
<path d="M14.0039 3.47173V17.8701C14.0037 18.0532 14.0448 18.2345 14.1245 18.4026C14.2043 18.5708 14.3212 18.7222 14.4678 18.8476C14.6144 18.9729 14.7877 19.0696 14.9769 19.1315C15.1662 19.1934 15.3674 19.2192 15.5681 19.2074C17.4457 19.0954 19.3193 19.0394 21.1889 19.0394C23.0954 19.0394 25.0075 19.0977 26.9251 19.2143C27.1259 19.2262 27.3273 19.2005 27.5167 19.1387C27.7062 19.0769 27.8796 18.9803 28.0264 18.8549C28.1732 18.7295 28.2902 18.5781 28.37 18.4098C28.4499 18.2416 28.491 18.0602 28.4908 17.8769V3.4649C28.4912 3.28154 28.4503 3.10007 28.3705 2.93174C28.2907 2.76341 28.1737 2.61182 28.0269 2.48639C27.8801 2.36097 27.7065 2.2644 27.517 2.20266C27.3274 2.14092 27.126 2.11535 26.9251 2.12752C25.0085 2.24318 23.0964 2.30147 21.1889 2.30238C19.3223 2.30238 17.4487 2.24637 15.5681 2.13435C15.3674 2.12258 15.1662 2.14844 14.9769 2.21034C14.7877 2.27224 14.6144 2.36886 14.4678 2.49422C14.3212 2.61958 14.2043 2.77102 14.1245 2.93916C14.0448 3.1073 14.0037 3.28856 14.0039 3.47173Z" fill="url(#paint2_linear_540_1143)"/>
<path d="M50.7476 3.63977C50.7402 3.53581 50.7607 3.43177 50.8072 3.33659C50.8537 3.24141 50.9248 3.15794 51.0146 3.09335C51.2482 2.94402 51.5043 2.82623 51.7749 2.74363L54.7263 1.80788C54.7672 1.79996 54.8089 1.79583 54.8507 1.79558H54.9617C55.0843 1.78079 55.209 1.79676 55.3224 1.84178C55.4358 1.88679 55.5335 1.95915 55.6051 2.05104C55.7226 2.25737 55.7784 2.48821 55.767 2.72041L55.755 5.97712H57.5367C57.786 5.96766 58.0292 6.04873 58.213 6.20252C58.3049 6.29267 58.3754 6.39914 58.4201 6.51526C58.4647 6.63138 58.4826 6.75465 58.4725 6.87735V9.16415C58.4849 9.29536 58.4683 9.42751 58.4237 9.55279C58.3792 9.67808 58.3075 9.79397 58.213 9.89362C58.1228 9.97113 58.0165 10.0315 57.9003 10.0711C57.7842 10.1107 57.6606 10.1289 57.5367 10.1245H55.755L55.767 20.1227C55.7773 20.2487 55.7569 20.3753 55.7074 20.4933C55.6579 20.6114 55.5805 20.718 55.4806 20.8058C55.2572 20.9695 54.975 21.0518 54.6888 21.0366H51.7494C51.6133 21.0545 51.4745 21.0431 51.344 21.0036C51.2136 20.964 51.095 20.8973 50.9978 20.8088C50.9005 20.7202 50.8273 20.6122 50.7839 20.4934C50.7405 20.3745 50.728 20.2481 50.7476 20.1241L50.7341 10.1259H49.3949C48.7281 10.1259 48.3941 9.80711 48.3931 9.16961V6.87325C48.3749 6.75004 48.3884 6.62466 48.4325 6.50701C48.4766 6.38935 48.5502 6.28266 48.6473 6.19535C48.7445 6.10804 48.8626 6.0425 48.9923 6.00391C49.1221 5.96533 49.2599 5.95474 49.3949 5.97301H50.7341L50.7476 3.63977Z" fill="white"/>
<path d="M59.9167 13.5206C59.912 12.8125 60.0129 12.107 60.2166 11.4237C60.4121 10.7701 60.701 10.1427 61.0759 9.55762C61.4423 8.98655 61.8878 8.46085 62.4016 7.99348C62.9154 7.52537 63.4948 7.12117 64.1248 6.79134C64.7685 6.45549 65.457 6.19653 66.1733 6.02088C66.9219 5.8371 67.694 5.74522 68.4693 5.74767C69.6101 5.74075 70.7405 5.94428 71.7926 6.346C72.8014 6.72944 73.7184 7.28861 74.492 7.99211C75.2658 8.69854 75.8842 9.53314 76.3141 10.451C76.7652 11.4194 76.9929 12.4619 76.983 13.5137C76.9879 14.2196 76.887 14.9228 76.683 15.6038C76.4864 16.2569 76.1981 16.884 75.8252 17.4699C75.4591 18.0431 75.013 18.5707 74.498 19.0395C73.9833 19.5085 73.4041 19.9149 72.7749 20.2484C72.1361 20.586 71.4521 20.8468 70.7398 21.0244C70.0005 21.2082 69.2372 21.3001 68.4708 21.2976C67.6955 21.3 66.9234 21.2082 66.1748 21.0244C65.4578 20.848 64.7691 20.5872 64.1262 20.2484C63.497 19.9149 62.9178 19.5085 62.4031 19.0395C61.8882 18.571 61.4425 18.0433 61.0774 17.4699C60.7041 16.8841 60.4153 16.2569 60.2181 15.6038C60.0143 14.9251 59.9129 14.2242 59.9167 13.5206V13.5206ZM64.6631 13.5206C64.6607 14.019 64.753 14.514 64.9361 14.9836C65.0993 15.4174 65.354 15.8178 65.6859 16.1625C66.016 16.4969 66.419 16.7649 66.8692 16.9494C67.3621 17.149 67.8969 17.2483 68.4363 17.2404C68.9631 17.2474 69.485 17.1481 69.9645 16.9494C70.407 16.7645 70.8016 16.4963 71.1222 16.1625C71.4468 15.8165 71.6939 15.416 71.8496 14.9836C72.0217 14.5119 72.1074 14.0176 72.103 13.5206C72.1058 13.0294 72.0202 12.5412 71.8496 12.0753C71.6917 11.6346 71.445 11.2246 71.1222 10.8663C70.805 10.5209 70.4102 10.2414 69.9645 10.0467C69.487 9.84117 68.9643 9.7379 68.4363 9.74477C67.8957 9.73689 67.36 9.84008 66.8692 10.0467C66.4158 10.241 66.0126 10.5203 65.6859 10.8663C65.3557 11.2234 65.1014 11.6334 64.9361 12.0753C64.7546 12.5392 64.6623 13.0281 64.6631 13.5206V13.5206Z" fill="white"/>
<path d="M94.9131 20.8304C94.8112 20.9122 94.6885 20.9695 94.5562 20.997C94.4383 21.0197 94.3182 21.0316 94.1977 21.0326H92.2301C92.0908 21.0359 91.9526 21.0092 91.8267 20.9547C91.7162 20.9053 91.6186 20.835 91.5403 20.7484C91.461 20.6586 91.3954 20.5593 91.3453 20.4534C91.2927 20.3421 91.2491 20.2275 91.2149 20.1105L90.9419 18.952C90.7746 19.2415 90.5551 19.5034 90.2926 19.7266C89.955 20.02 89.5769 20.2721 89.1678 20.4766C88.6799 20.7196 88.1625 20.9098 87.6261 21.0435C87.0075 21.197 86.3687 21.2724 85.7276 21.2675C84.8191 21.2836 83.9192 21.1054 83.1001 20.7471C82.3495 20.4079 81.69 19.9224 81.1685 19.325C80.6294 18.6992 80.2258 17.9857 79.9793 17.2226C79.7051 16.3906 79.5691 15.5258 79.5759 14.6571V6.89789C79.5559 6.65422 79.6319 6.41205 79.7903 6.21485C79.8782 6.13269 79.9849 6.06934 80.103 6.02941C80.221 5.98948 80.3473 5.97397 80.4727 5.98399H83.472C83.7422 5.95785 84.0139 6.01875 84.2399 6.15611C84.3218 6.24971 84.3824 6.35723 84.4182 6.47239C84.4539 6.58754 84.4642 6.70804 84.4483 6.82685V14.5465C84.4461 14.8789 84.5191 15.2081 84.6628 15.5137C84.8011 15.8118 84.9972 16.0848 85.2417 16.3196C85.4841 16.5503 85.7734 16.7359 86.0935 16.8661C86.4181 16.9997 86.7705 17.0682 87.1267 17.0669C87.4705 17.0649 87.8123 17.0189 88.142 16.9303C88.5056 16.8361 88.8485 16.6854 89.1558 16.4849C89.4729 16.2788 89.739 16.0145 89.9371 15.709C90.1533 15.3623 90.2611 14.9683 90.2491 14.5697V6.86237C90.2495 6.72446 90.2779 6.58782 90.3331 6.45938C90.3812 6.33579 90.4696 6.22855 90.5865 6.15202C90.6845 6.09159 90.7923 6.0455 90.9059 6.01541C91.0183 5.99058 91.1337 5.97864 91.2494 5.97989H94.1887C94.3348 5.96768 94.4821 5.98349 94.6211 6.02631C94.76 6.06914 94.8876 6.13802 94.9956 6.22852C95.1673 6.4133 95.2558 6.65057 95.243 6.89242V20.1501C95.2436 20.2929 95.2055 20.4337 95.132 20.5599C95.0641 20.6821 94.9603 20.7848 94.8321 20.8563L94.9131 20.8304Z" fill="white"/>
<path d="M98.3789 6.86232C98.3751 6.72734 98.4064 6.59345 98.4704 6.47164C98.5264 6.36503 98.6085 6.27156 98.7104 6.19842C98.8112 6.12687 98.9256 6.07271 99.0478 6.03859C99.1681 6.0039 99.2935 5.98594 99.4197 5.98531H101.378C101.474 5.98109 101.569 5.99466 101.659 6.0252C101.748 6.05574 101.83 6.10259 101.899 6.1629C102.038 6.294 102.15 6.44666 102.23 6.6137C102.327 6.8093 102.407 7.01111 102.472 7.2175C102.539 7.43494 102.621 7.64844 102.717 7.85683C102.978 7.59591 103.236 7.34045 103.491 7.08773C103.743 6.83889 104.019 6.61246 104.318 6.41153C104.616 6.21332 104.942 6.05208 105.286 5.93203C105.671 5.8046 106.077 5.74256 106.486 5.74899C106.907 5.74533 107.327 5.77688 107.741 5.84325C108.101 5.90129 108.452 5.99284 108.791 6.11646C109.133 6.24471 109.462 6.4011 109.773 6.58365C110.099 6.77354 110.451 6.99347 110.834 7.24756C110.988 7.30695 111.121 7.40341 111.22 7.52662C111.318 7.64983 111.378 7.79514 111.393 7.94698C111.378 8.16239 111.301 8.37048 111.171 8.55078L109.988 10.3868C109.898 10.5252 109.771 10.6403 109.618 10.7212C109.466 10.802 109.293 10.8458 109.117 10.8485C108.913 10.8407 108.714 10.7942 108.532 10.7119C108.201 10.408 107.816 10.1577 107.393 9.97149C106.978 9.80364 106.528 9.72064 106.074 9.72833C105.77 9.72467 105.468 9.77095 105.183 9.86494C104.93 9.94968 104.694 10.0735 104.487 10.231C104.268 10.3998 104.072 10.5909 103.901 10.8007C103.719 11.022 103.537 11.2665 103.355 11.5343V20.1118C103.375 20.3592 103.289 20.6041 103.115 20.7948C103.005 20.8804 102.878 20.945 102.74 20.9847C102.603 21.0243 102.458 21.0383 102.314 21.0257H99.3882C99.2514 21.0442 99.1118 21.0335 98.9803 20.9944C98.8489 20.9553 98.7293 20.8888 98.6309 20.8003C98.5325 20.7117 98.4581 20.6036 98.4136 20.4843C98.3691 20.365 98.3557 20.238 98.3744 20.1132L98.3789 6.86232Z" fill="white"/>
<path d="M113.329 0.914498C113.315 0.788751 113.328 0.661706 113.369 0.540714C113.409 0.419723 113.475 0.307188 113.563 0.20961C113.767 0.0569465 114.028 -0.017093 114.29 0.0033327H117.308C117.572 -0.00856442 117.832 0.0644539 118.043 0.20961C118.144 0.300459 118.222 0.410973 118.271 0.532981C118.319 0.65499 118.337 0.785372 118.323 0.914498V3.22452C118.321 3.33064 118.296 3.43538 118.251 3.53325C118.201 3.64798 118.132 3.7556 118.049 3.85291C117.963 3.95637 117.855 4.04282 117.731 4.10699C117.603 4.17537 117.456 4.21034 117.308 4.20808H114.29C113.649 4.20808 113.328 3.88023 113.329 3.22452V0.914498ZM113.329 6.91016C113.323 6.67494 113.405 6.44488 113.563 6.25854C113.652 6.16388 113.764 6.08978 113.891 6.04229C114.017 5.9948 114.154 5.97528 114.29 5.98533H117.275C117.391 5.98755 117.506 6.00981 117.614 6.05091C117.738 6.0957 117.852 6.15997 117.951 6.24079C118.056 6.32408 118.146 6.42179 118.218 6.53039C118.293 6.64519 118.331 6.77665 118.329 6.91016V20.1186C118.339 20.2437 118.32 20.3693 118.273 20.4871C118.225 20.6048 118.151 20.7121 118.055 20.8017C117.837 20.9667 117.558 21.0494 117.275 21.0325H114.29C113.649 21.0325 113.328 20.7284 113.329 20.12V6.91016Z" fill="white"/>
<path d="M123.914 16.3511C124.141 16.5617 124.397 16.7454 124.676 16.8975C124.927 17.0344 125.191 17.1532 125.463 17.2527C125.678 17.3333 125.9 17.3986 126.126 17.448C126.253 17.4786 126.384 17.4982 126.516 17.5067C126.681 17.5067 126.891 17.5067 127.147 17.489C127.396 17.479 127.642 17.4432 127.882 17.3824C128.103 17.3281 128.308 17.2291 128.482 17.0928C128.568 17.0213 128.635 16.9332 128.679 16.8348C128.723 16.7365 128.742 16.6305 128.735 16.5246C128.744 16.3391 128.692 16.1555 128.585 15.9972C128.479 15.8567 128.337 15.7426 128.17 15.6653C127.957 15.5626 127.733 15.4811 127.501 15.4221C127.235 15.3511 126.935 15.2682 126.601 15.1735C125.703 14.9716 124.838 14.6649 124.026 14.261C123.416 13.9558 122.872 13.5527 122.42 13.0711C122.04 12.6564 121.759 12.1739 121.595 11.6545C121.437 11.1341 121.358 10.5963 121.361 10.0562C121.352 9.43767 121.499 8.82542 121.79 8.26668C122.077 7.72792 122.495 7.256 123.012 6.88696C123.583 6.48265 124.23 6.17873 124.923 5.99081C125.72 5.77421 126.549 5.66874 127.381 5.67799C127.895 5.67519 128.409 5.71681 128.915 5.80229C129.386 5.88289 129.844 6.01404 130.281 6.19299C130.73 6.3777 131.155 6.60675 131.549 6.87603C131.988 7.17818 132.4 7.51311 132.778 7.87735C132.907 7.99761 132.988 8.15411 133.006 8.32132C132.996 8.41027 132.964 8.4961 132.914 8.57279C132.863 8.64948 132.795 8.71519 132.714 8.7653C132.375 9.01802 132.052 9.26664 131.743 9.51117C131.435 9.75569 131.118 10.0289 130.788 10.3308C130.699 10.403 130.592 10.4537 130.476 10.4783C130.378 10.5005 130.275 10.5005 130.176 10.4783C130.078 10.4534 129.985 10.4132 129.902 10.3595C129.814 10.3032 129.735 10.2355 129.668 10.1587C129.393 9.86617 129.032 9.65027 128.629 9.53575C128.275 9.43445 127.906 9.38061 127.535 9.37593C127.184 9.36092 126.834 9.43065 126.522 9.5781C126.402 9.63693 126.305 9.72713 126.242 9.83699C126.18 9.94685 126.155 10.0713 126.171 10.1942C126.174 10.2859 126.198 10.376 126.241 10.4586C126.285 10.5412 126.347 10.6145 126.424 10.6737C126.591 10.7942 126.781 10.8867 126.984 10.9469C127.212 11.0202 127.447 11.0773 127.685 11.1177C127.933 11.1614 128.159 11.2105 128.368 11.2666C129.098 11.4787 129.814 11.7277 130.514 12.0124C131.13 12.261 131.7 12.5946 132.204 13.0015C132.68 13.392 133.06 13.8708 133.317 14.4058C133.599 15.0371 133.733 15.7149 133.713 16.3961C133.726 17.1222 133.551 17.8409 133.2 18.493C132.864 19.101 132.382 19.6316 131.788 20.0449C131.15 20.4804 130.429 20.8046 129.662 21.0011C128.802 21.2276 127.91 21.3394 127.015 21.3331C126.466 21.3297 125.918 21.284 125.377 21.1965C124.824 21.1102 124.283 20.9692 123.764 20.7757C123.24 20.5796 122.742 20.3294 122.281 20.0299C121.806 19.7195 121.386 19.346 121.033 18.922C120.941 18.817 120.868 18.6988 120.818 18.5723C120.772 18.4564 120.75 18.3336 120.754 18.2103C120.756 18.0983 120.782 17.9877 120.832 17.8851C120.881 17.7838 120.96 17.6961 121.058 17.6311L122.736 16.1024C122.806 16.0341 122.893 15.9829 122.989 15.9538C123.086 15.9246 123.19 15.9184 123.29 15.9358C123.528 16.0326 123.74 16.1741 123.914 16.3511V16.3511Z" fill="white"/>
<path d="M150.341 19.2293C149.588 19.8658 148.716 20.3747 147.766 20.732C146.806 21.0923 145.776 21.2753 144.737 21.2702C143.582 21.2764 142.438 21.0754 141.369 20.6787C140.335 20.2987 139.39 19.7423 138.585 19.0394C137.783 18.3356 137.138 17.4969 136.687 16.5696C136.212 15.597 135.972 14.5427 135.983 13.4782C135.981 12.7965 136.075 12.1175 136.264 11.4578C136.444 10.8199 136.71 10.205 137.057 9.62725C137.4 9.05876 137.819 8.53147 138.305 8.05763C138.792 7.58221 139.346 7.16867 139.954 6.82817C140.572 6.48429 141.237 6.21736 141.933 6.0345C142.664 5.84219 143.421 5.7465 144.182 5.75036C144.892 5.74813 145.598 5.83547 146.282 6.0099C146.948 6.18076 147.588 6.4277 148.186 6.74485C148.78 7.06086 149.329 7.44312 149.819 7.88278C150.307 8.31767 150.735 8.80482 151.094 9.33355C151.449 9.85864 151.726 10.424 151.919 11.0152C152.116 11.6129 152.218 12.2337 152.219 12.858C152.219 13.2678 152.219 13.6039 152.198 13.8648C152.199 14.0854 152.129 14.3016 151.997 14.4863C151.847 14.6564 151.633 14.7702 151.397 14.806C150.988 14.8763 150.572 14.9066 150.155 14.8962H140.791C140.855 15.3505 141.036 15.7847 141.318 16.1639C141.562 16.4857 141.874 16.7608 142.234 16.9739C142.574 17.1729 142.947 17.3193 143.339 17.407C143.701 17.493 144.072 17.5388 144.446 17.5436C144.769 17.543 145.091 17.5133 145.407 17.4548C145.732 17.397 146.052 17.318 146.364 17.2185C146.656 17.1265 146.939 17.0113 147.208 16.8742C147.434 16.7642 147.642 16.6263 147.826 16.4644C147.939 16.379 148.059 16.3018 148.185 16.2335C148.282 16.1833 148.391 16.157 148.503 16.157C148.627 16.1604 148.747 16.1975 148.848 16.2636C148.99 16.3545 149.123 16.4574 149.245 16.571L150.623 17.993C150.703 18.0719 150.765 18.1648 150.805 18.2662C150.831 18.3488 150.844 18.4344 150.844 18.5203C150.846 18.6684 150.793 18.8128 150.694 18.9301C150.593 19.0454 150.474 19.1462 150.341 19.2293ZM144.086 9.36223C143.748 9.36239 143.414 9.42465 143.104 9.54529C142.783 9.67056 142.483 9.8361 142.213 10.0371C141.934 10.2427 141.682 10.4774 141.463 10.7365C141.251 10.9817 141.07 11.248 140.923 11.5302H147.568C147.394 11.233 147.197 10.9476 146.977 10.6764C146.768 10.4212 146.523 10.1917 146.249 9.99335C145.968 9.79239 145.651 9.63628 145.313 9.53162C144.917 9.41386 144.502 9.35662 144.086 9.36223V9.36223Z" fill="white"/>
<path d="M166.689 19.5463C166.438 19.7727 166.171 19.9844 165.89 20.1801C165.583 20.393 165.256 20.5813 164.914 20.743C164.553 20.9119 164.174 21.0464 163.783 21.1446C163.366 21.2489 162.935 21.3009 162.502 21.299C161.381 21.3102 160.27 21.1044 159.243 20.6951C158.275 20.308 157.404 19.7456 156.682 19.0422C155.954 18.3246 155.384 17.4861 155.004 16.5724C154.597 15.5966 154.393 14.5602 154.404 13.5165C154.392 12.4704 154.595 11.4315 155.004 10.4538C155.386 9.54416 155.955 8.70952 156.682 7.99484C157.403 7.29206 158.275 6.73176 159.243 6.34873C160.271 5.94318 161.382 5.73932 162.502 5.7504C162.941 5.74689 163.378 5.78443 163.808 5.86242C164.181 5.93083 164.544 6.03999 164.888 6.18754C165.208 6.32678 165.509 6.49766 165.788 6.69708C166.063 6.89688 166.321 7.11466 166.562 7.34869V2.40763C166.555 2.17307 166.645 1.94481 166.815 1.76832C166.914 1.67702 167.033 1.60637 167.164 1.56131C167.296 1.51625 167.437 1.49785 167.577 1.50739H170.503C170.625 1.50908 170.746 1.53131 170.86 1.57296C170.985 1.61584 171.102 1.67773 171.205 1.75602C171.309 1.83453 171.395 1.93111 171.458 2.04016C171.524 2.15319 171.558 2.2796 171.556 2.40763V20.1187C171.556 20.7261 171.206 21.0303 170.506 21.0312H167.956C167.819 21.0368 167.681 21.0163 167.553 20.9711C167.459 20.9332 167.376 20.8745 167.313 20.8003C167.241 20.7127 167.182 20.6167 167.138 20.5148C167.085 20.4014 167.021 20.2689 166.943 20.1187L166.689 19.5463ZM159.081 13.5165C159.077 14.0145 159.167 14.5095 159.348 14.9795C159.513 15.4146 159.772 15.8154 160.109 16.1584C160.442 16.492 160.847 16.7599 161.298 16.9453C161.782 17.1432 162.309 17.2425 162.84 17.2363C163.376 17.2391 163.909 17.1463 164.407 16.9631C164.883 16.7898 165.318 16.5342 165.687 16.2104C166.055 15.8864 166.353 15.5028 166.566 15.0793C166.788 14.6396 166.914 14.165 166.937 13.6818V13.5165C166.938 13.0207 166.832 12.5295 166.625 12.0712C166.423 11.6217 166.13 11.2114 165.759 10.8622C165.388 10.5153 164.946 10.237 164.459 10.0426C163.949 9.8394 163.397 9.73653 162.84 9.74067C162.307 9.73475 161.78 9.83793 161.298 10.0426C160.843 10.2378 160.438 10.5169 160.109 10.8622C159.773 11.2177 159.515 11.6279 159.348 12.0712C159.168 12.5367 159.078 13.027 159.081 13.5206V13.5165Z" fill="white"/>
<defs>
<linearGradient id="paint0_linear_540_1143" x1="-3.73656" y1="10.65" x2="44.3249" y2="10.7183" gradientUnits="userSpaceOnUse">
<stop stop-color="#00E0FF" stop-opacity="0.4"/>
<stop offset="1" stop-color="#00E0FF"/>
</linearGradient>
<linearGradient id="paint1_linear_540_1143" x1="-3.74748" y1="10.5048" x2="44.3186" y2="10.573" gradientUnits="userSpaceOnUse">
<stop stop-color="#00E0FF" stop-opacity="0.4"/>
<stop offset="1" stop-color="#00E0FF"/>
</linearGradient>
<linearGradient id="paint2_linear_540_1143" x1="-3.74253" y1="10.5683" x2="44.3106" y2="10.7034" gradientUnits="userSpaceOnUse">
<stop stop-color="#00E0FF" stop-opacity="0.4"/>
<stop offset="1" stop-color="#00E0FF"/>
</linearGradient>
</defs>
</svg>
