<svg width="540" height="237" viewBox="0 0 540 237" fill="none" xmlns="http://www.w3.org/2000/svg">
<path d="M104.251 113.57C104.019 113.57 97.6793 113.261 97.6793 107.076V100.118C97.6793 100.118 98.4524 93.7009 104.173 93.7009V87.2841H101.081C88.4793 87.2841 78.3516 97.4891 78.3516 110.091V121.842L104.251 121.765V113.57Z" fill="white"/>
<path opacity="0.5" d="M78.429 157.56C78.429 170.161 88.7114 184 101.236 184H110.977C123.579 184 133.706 170.084 133.706 157.482L133.629 124.239L78.2744 124.393L78.429 157.56Z" fill="white"/>
<path opacity="0.5" d="M114.069 100.272V106.766C114.069 106.766 113.683 113.492 107.575 113.492V121.765H133.552V110.013C133.552 97.4117 123.347 87.2067 110.745 87.284H107.73V93.7781C107.807 93.7781 114.069 94.1647 114.069 100.272Z" fill="white"/>
<path opacity="0.5" d="M101.932 99.8083V106.612C101.932 108.699 103.632 110.323 105.643 110.323C107.73 110.323 109.353 108.622 109.353 106.612V99.8083C109.353 97.7209 107.653 96.0974 105.643 96.0974C103.632 96.0974 101.932 97.7209 101.932 99.8083Z" fill="white"/>
<path d="M95.8237 76.6925C95.7464 76.6925 95.669 76.6925 95.5917 76.6151L77.9648 66.2555C77.8102 66.1782 77.7329 66.0235 77.7329 65.8689C77.7329 65.7143 77.8102 65.5597 77.8875 65.4051L93.427 52.1849C93.5043 52.1076 93.659 52.0303 93.7363 52.0303C93.8136 52.0303 93.8909 52.0303 93.9682 52.1076C94.1228 52.1849 94.2774 52.3395 94.2774 52.5714L94.664 57.2101C95.901 57.1328 97.138 57.0555 98.3749 57.0555C105.797 57.0555 113.914 58.9109 120.718 62.0807C127.753 65.4051 132.624 69.7345 134.247 74.2958C134.325 74.6051 134.17 74.837 133.938 74.9916C133.861 74.9916 133.783 74.9916 133.783 74.9916C133.551 74.9916 133.397 74.837 133.319 74.6824C131.387 69.9664 124.274 66.9513 114.688 66.9513C108.425 66.9513 101.777 68.1883 95.8237 70.5076L96.2875 76.074C96.2875 76.3059 96.2102 76.4605 96.0556 76.5378C96.0556 76.6151 95.901 76.6925 95.8237 76.6925Z" fill="url(#paint0_linear_409_1204)"/>
<path d="M0.49 226.1C0.49 225.139 0.704667 224.28 1.134 223.524C1.57267 222.759 2.16533 222.166 2.912 221.746C3.668 221.317 4.51267 221.102 5.446 221.102C6.538 221.102 7.49467 221.382 8.316 221.942C9.13733 222.502 9.71133 223.277 10.038 224.266H7.784C7.56 223.799 7.24267 223.449 6.832 223.216C6.43067 222.983 5.964 222.866 5.432 222.866C4.86267 222.866 4.354 223.001 3.906 223.272C3.46733 223.533 3.122 223.907 2.87 224.392C2.62733 224.877 2.506 225.447 2.506 226.1C2.506 226.744 2.62733 227.313 2.87 227.808C3.122 228.293 3.46733 228.671 3.906 228.942C4.354 229.203 4.86267 229.334 5.432 229.334C5.964 229.334 6.43067 229.217 6.832 228.984C7.24267 228.741 7.56 228.387 7.784 227.92H10.038C9.71133 228.919 9.13733 229.698 8.316 230.258C7.504 230.809 6.54733 231.084 5.446 231.084C4.51267 231.084 3.668 230.874 2.912 230.454C2.16533 230.025 1.57267 229.432 1.134 228.676C0.704667 227.92 0.49 227.061 0.49 226.1ZM13.6721 220.64V231H11.7121V220.64H13.6721ZM16.6026 222.32C16.2572 222.32 15.9679 222.213 15.7346 221.998C15.5106 221.774 15.3986 221.499 15.3986 221.172C15.3986 220.845 15.5106 220.575 15.7346 220.36C15.9679 220.136 16.2572 220.024 16.6026 220.024C16.9479 220.024 17.2326 220.136 17.4566 220.36C17.6899 220.575 17.8066 220.845 17.8066 221.172C17.8066 221.499 17.6899 221.774 17.4566 221.998C17.2326 222.213 16.9479 222.32 16.6026 222.32ZM17.5686 223.244V231H15.6086V223.244H17.5686ZM19.0011 227.122C19.0011 226.319 19.1644 225.619 19.4911 225.022C19.8177 224.415 20.2704 223.949 20.8491 223.622C21.4277 223.286 22.0904 223.118 22.8371 223.118C23.7984 223.118 24.5917 223.361 25.2171 223.846C25.8517 224.322 26.2764 224.994 26.4911 225.862H24.3771C24.2651 225.526 24.0737 225.265 23.8031 225.078C23.5417 224.882 23.2151 224.784 22.8231 224.784C22.2631 224.784 21.8197 224.989 21.4931 225.4C21.1664 225.801 21.0031 226.375 21.0031 227.122C21.0031 227.859 21.1664 228.433 21.4931 228.844C21.8197 229.245 22.2631 229.446 22.8231 229.446C23.6164 229.446 24.1344 229.091 24.3771 228.382H26.4911C26.2764 229.222 25.8517 229.889 25.2171 230.384C24.5824 230.879 23.7891 231.126 22.8371 231.126C22.0904 231.126 21.4277 230.963 20.8491 230.636C20.2704 230.3 19.8177 229.833 19.4911 229.236C19.1644 228.629 19.0011 227.925 19.0011 227.122ZM32.5189 231L29.8869 227.696V231H27.9269V220.64H29.8869V226.534L32.4909 223.244H35.0389L31.6229 227.136L35.0669 231H32.5189ZM38.9347 227.094C38.9347 226.31 39.0887 225.615 39.3967 225.008C39.714 224.401 40.1387 223.935 40.6707 223.608C41.212 223.281 41.814 223.118 42.4767 223.118C43.0553 223.118 43.5593 223.235 43.9887 223.468C44.4273 223.701 44.7773 223.995 45.0387 224.35V223.244H47.0127V231H45.0387V229.866C44.7867 230.23 44.4367 230.533 43.9887 230.776C43.55 231.009 43.0413 231.126 42.4627 231.126C41.8093 231.126 41.212 230.958 40.6707 230.622C40.1387 230.286 39.714 229.815 39.3967 229.208C39.0887 228.592 38.9347 227.887 38.9347 227.094ZM45.0387 227.122C45.0387 226.646 44.9453 226.24 44.7587 225.904C44.572 225.559 44.32 225.297 44.0027 225.12C43.6853 224.933 43.3447 224.84 42.9807 224.84C42.6167 224.84 42.2807 224.929 41.9727 225.106C41.6647 225.283 41.4127 225.545 41.2167 225.89C41.03 226.226 40.9367 226.627 40.9367 227.094C40.9367 227.561 41.03 227.971 41.2167 228.326C41.4127 228.671 41.6647 228.937 41.9727 229.124C42.29 229.311 42.626 229.404 42.9807 229.404C43.3447 229.404 43.6853 229.315 44.0027 229.138C44.32 228.951 44.572 228.69 44.7587 228.354C44.9453 228.009 45.0387 227.598 45.0387 227.122ZM53.2249 223.132C54.1489 223.132 54.8956 223.426 55.4649 224.014C56.0343 224.593 56.3189 225.405 56.3189 226.45V231H54.3589V226.716C54.3589 226.1 54.2049 225.629 53.8969 225.302C53.5889 224.966 53.1689 224.798 52.6369 224.798C52.0956 224.798 51.6663 224.966 51.3489 225.302C51.0409 225.629 50.8869 226.1 50.8869 226.716V231H48.9269V223.244H50.8869V224.21C51.1483 223.874 51.4796 223.613 51.8809 223.426C52.2916 223.23 52.7396 223.132 53.2249 223.132ZM57.6788 227.094C57.6788 226.31 57.8328 225.615 58.1408 225.008C58.4581 224.401 58.8875 223.935 59.4288 223.608C59.9701 223.281 60.5721 223.118 61.2348 223.118C61.7388 223.118 62.2195 223.23 62.6768 223.454C63.1341 223.669 63.4981 223.958 63.7688 224.322V220.64H65.7568V231H63.7688V229.852C63.5261 230.235 63.1855 230.543 62.7468 230.776C62.3081 231.009 61.7995 231.126 61.2208 231.126C60.5675 231.126 59.9701 230.958 59.4288 230.622C58.8875 230.286 58.4581 229.815 58.1408 229.208C57.8328 228.592 57.6788 227.887 57.6788 227.094ZM63.7828 227.122C63.7828 226.646 63.6895 226.24 63.5028 225.904C63.3161 225.559 63.0641 225.297 62.7468 225.12C62.4295 224.933 62.0888 224.84 61.7248 224.84C61.3608 224.84 61.0248 224.929 60.7168 225.106C60.4088 225.283 60.1568 225.545 59.9608 225.89C59.7741 226.226 59.6808 226.627 59.6808 227.094C59.6808 227.561 59.7741 227.971 59.9608 228.326C60.1568 228.671 60.4088 228.937 60.7168 229.124C61.0341 229.311 61.3701 229.404 61.7248 229.404C62.0888 229.404 62.4295 229.315 62.7468 229.138C63.0641 228.951 63.3161 228.69 63.5028 228.354C63.6895 228.009 63.7828 227.598 63.7828 227.122ZM74.423 221.228C75.4497 221.228 76.3503 221.429 77.125 221.83C77.909 222.231 78.511 222.805 78.931 223.552C79.3603 224.289 79.575 225.148 79.575 226.128C79.575 227.108 79.3603 227.967 78.931 228.704C78.511 229.432 77.909 229.997 77.125 230.398C76.3503 230.799 75.4497 231 74.423 231H71.007V221.228H74.423ZM74.353 229.334C75.3797 229.334 76.173 229.054 76.733 228.494C77.293 227.934 77.573 227.145 77.573 226.128C77.573 225.111 77.293 224.317 76.733 223.748C76.173 223.169 75.3797 222.88 74.353 222.88H72.967V229.334H74.353ZM83.0022 224.448C83.2542 224.037 83.5808 223.715 83.9822 223.482C84.3928 223.249 84.8595 223.132 85.3822 223.132V225.19H84.8642C84.2482 225.19 83.7815 225.335 83.4642 225.624C83.1562 225.913 83.0022 226.417 83.0022 227.136V231H81.0422V223.244H83.0022V224.448ZM86.1983 227.094C86.1983 226.31 86.3523 225.615 86.6603 225.008C86.9777 224.401 87.4023 223.935 87.9343 223.608C88.4757 223.281 89.0777 223.118 89.7403 223.118C90.319 223.118 90.823 223.235 91.2523 223.468C91.691 223.701 92.041 223.995 92.3023 224.35V223.244H94.2763V231H92.3023V229.866C92.0503 230.23 91.7003 230.533 91.2523 230.776C90.8137 231.009 90.305 231.126 89.7263 231.126C89.073 231.126 88.4757 230.958 87.9343 230.622C87.4023 230.286 86.9777 229.815 86.6603 229.208C86.3523 228.592 86.1983 227.887 86.1983 227.094ZM92.3023 227.122C92.3023 226.646 92.209 226.24 92.0223 225.904C91.8357 225.559 91.5837 225.297 91.2663 225.12C90.949 224.933 90.6083 224.84 90.2443 224.84C89.8803 224.84 89.5443 224.929 89.2363 225.106C88.9283 225.283 88.6763 225.545 88.4803 225.89C88.2937 226.226 88.2003 226.627 88.2003 227.094C88.2003 227.561 88.2937 227.971 88.4803 228.326C88.6763 228.671 88.9283 228.937 89.2363 229.124C89.5537 229.311 89.8897 229.404 90.2443 229.404C90.6083 229.404 90.949 229.315 91.2663 229.138C91.5837 228.951 91.8357 228.69 92.0223 228.354C92.209 228.009 92.3023 227.598 92.3023 227.122ZM99.2286 223.118C99.8073 223.118 100.316 223.235 100.755 223.468C101.193 223.692 101.539 223.986 101.791 224.35V223.244H103.765V231.056C103.765 231.775 103.62 232.414 103.331 232.974C103.041 233.543 102.607 233.991 102.029 234.318C101.45 234.654 100.75 234.822 99.9286 234.822C98.8273 234.822 97.9219 234.565 97.2126 234.052C96.5126 233.539 96.1159 232.839 96.0226 231.952H97.9686C98.0713 232.307 98.2906 232.587 98.6266 232.792C98.9719 233.007 99.3873 233.114 99.8726 233.114C100.442 233.114 100.904 232.941 101.259 232.596C101.613 232.26 101.791 231.747 101.791 231.056V229.852C101.539 230.216 101.189 230.519 100.741 230.762C100.302 231.005 99.7979 231.126 99.2286 231.126C98.5753 231.126 97.9779 230.958 97.4366 230.622C96.8953 230.286 96.4659 229.815 96.1486 229.208C95.8406 228.592 95.6866 227.887 95.6866 227.094C95.6866 226.31 95.8406 225.615 96.1486 225.008C96.4659 224.401 96.8906 223.935 97.4226 223.608C97.9639 223.281 98.5659 223.118 99.2286 223.118ZM101.791 227.122C101.791 226.646 101.697 226.24 101.511 225.904C101.324 225.559 101.072 225.297 100.755 225.12C100.437 224.933 100.097 224.84 99.7326 224.84C99.3686 224.84 99.0326 224.929 98.7246 225.106C98.4166 225.283 98.1646 225.545 97.9686 225.89C97.7819 226.226 97.6886 226.627 97.6886 227.094C97.6886 227.561 97.7819 227.971 97.9686 228.326C98.1646 228.671 98.4166 228.937 98.7246 229.124C99.0419 229.311 99.3779 229.404 99.7326 229.404C100.097 229.404 100.437 229.315 100.755 229.138C101.072 228.951 101.324 228.69 101.511 228.354C101.697 228.009 101.791 227.598 101.791 227.122ZM111.297 224.854V228.606C111.297 228.867 111.357 229.059 111.479 229.18C111.609 229.292 111.824 229.348 112.123 229.348H113.033V231H111.801C110.149 231 109.323 230.197 109.323 228.592V224.854H108.399V223.244H109.323V221.326H111.297V223.244H113.033V224.854H111.297ZM117.887 231.126C117.14 231.126 116.468 230.963 115.871 230.636C115.273 230.3 114.802 229.829 114.457 229.222C114.121 228.615 113.953 227.915 113.953 227.122C113.953 226.329 114.125 225.629 114.471 225.022C114.825 224.415 115.306 223.949 115.913 223.622C116.519 223.286 117.196 223.118 117.943 223.118C118.689 223.118 119.366 223.286 119.973 223.622C120.579 223.949 121.055 224.415 121.401 225.022C121.755 225.629 121.933 226.329 121.933 227.122C121.933 227.915 121.751 228.615 121.387 229.222C121.032 229.829 120.547 230.3 119.931 230.636C119.324 230.963 118.643 231.126 117.887 231.126ZM117.887 229.418C118.241 229.418 118.573 229.334 118.881 229.166C119.198 228.989 119.45 228.727 119.637 228.382C119.823 228.037 119.917 227.617 119.917 227.122C119.917 226.385 119.721 225.82 119.329 225.428C118.946 225.027 118.475 224.826 117.915 224.826C117.355 224.826 116.883 225.027 116.501 225.428C116.127 225.82 115.941 226.385 115.941 227.122C115.941 227.859 116.123 228.429 116.487 228.83C116.86 229.222 117.327 229.418 117.887 229.418ZM128.666 220.64V231H126.706V220.64H128.666ZM134.047 231.126C133.3 231.126 132.628 230.963 132.031 230.636C131.433 230.3 130.962 229.829 130.617 229.222C130.281 228.615 130.113 227.915 130.113 227.122C130.113 226.329 130.285 225.629 130.631 225.022C130.985 224.415 131.466 223.949 132.073 223.622C132.679 223.286 133.356 223.118 134.103 223.118C134.849 223.118 135.526 223.286 136.133 223.622C136.739 223.949 137.215 224.415 137.561 225.022C137.915 225.629 138.093 226.329 138.093 227.122C138.093 227.915 137.911 228.615 137.547 229.222C137.192 229.829 136.707 230.3 136.091 230.636C135.484 230.963 134.803 231.126 134.047 231.126ZM134.047 229.418C134.401 229.418 134.733 229.334 135.041 229.166C135.358 228.989 135.61 228.727 135.797 228.382C135.983 228.037 136.077 227.617 136.077 227.122C136.077 226.385 135.881 225.82 135.489 225.428C135.106 225.027 134.635 224.826 134.075 224.826C133.515 224.826 133.043 225.027 132.661 225.428C132.287 225.82 132.101 226.385 132.101 227.122C132.101 227.859 132.283 228.429 132.647 228.83C133.02 229.222 133.487 229.418 134.047 229.418ZM142.974 231.126C142.228 231.126 141.556 230.963 140.958 230.636C140.361 230.3 139.89 229.829 139.544 229.222C139.208 228.615 139.04 227.915 139.04 227.122C139.04 226.329 139.213 225.629 139.558 225.022C139.913 224.415 140.394 223.949 141 223.622C141.607 223.286 142.284 223.118 143.03 223.118C143.777 223.118 144.454 223.286 145.06 223.622C145.667 223.949 146.143 224.415 146.488 225.022C146.843 225.629 147.02 226.329 147.02 227.122C147.02 227.915 146.838 228.615 146.474 229.222C146.12 229.829 145.634 230.3 145.018 230.636C144.412 230.963 143.73 231.126 142.974 231.126ZM142.974 229.418C143.329 229.418 143.66 229.334 143.968 229.166C144.286 228.989 144.538 228.727 144.724 228.382C144.911 228.037 145.004 227.617 145.004 227.122C145.004 226.385 144.808 225.82 144.416 225.428C144.034 225.027 143.562 224.826 143.002 224.826C142.442 224.826 141.971 225.027 141.588 225.428C141.215 225.82 141.028 226.385 141.028 227.122C141.028 227.859 141.21 228.429 141.574 228.83C141.948 229.222 142.414 229.418 142.974 229.418ZM153.05 231L150.418 227.696V231H148.458V220.64H150.418V226.534L153.022 223.244H155.57L152.154 227.136L155.598 231H153.05ZM159.466 227.094C159.466 226.31 159.62 225.615 159.928 225.008C160.245 224.401 160.67 223.935 161.202 223.608C161.743 223.281 162.345 223.118 163.008 223.118C163.587 223.118 164.091 223.235 164.52 223.468C164.959 223.701 165.309 223.995 165.57 224.35V223.244H167.544V231H165.57V229.866C165.318 230.23 164.968 230.533 164.52 230.776C164.081 231.009 163.573 231.126 162.994 231.126C162.341 231.126 161.743 230.958 161.202 230.622C160.67 230.286 160.245 229.815 159.928 229.208C159.62 228.592 159.466 227.887 159.466 227.094ZM165.57 227.122C165.57 226.646 165.477 226.24 165.29 225.904C165.103 225.559 164.851 225.297 164.534 225.12C164.217 224.933 163.876 224.84 163.512 224.84C163.148 224.84 162.812 224.929 162.504 225.106C162.196 225.283 161.944 225.545 161.748 225.89C161.561 226.226 161.468 226.627 161.468 227.094C161.468 227.561 161.561 227.971 161.748 228.326C161.944 228.671 162.196 228.937 162.504 229.124C162.821 229.311 163.157 229.404 163.512 229.404C163.876 229.404 164.217 229.315 164.534 229.138C164.851 228.951 165.103 228.69 165.29 228.354C165.477 228.009 165.57 227.598 165.57 227.122ZM171.418 224.448C171.67 224.037 171.997 223.715 172.398 223.482C172.809 223.249 173.276 223.132 173.798 223.132V225.19H173.28C172.664 225.19 172.198 225.335 171.88 225.624C171.572 225.913 171.418 226.417 171.418 227.136V231H169.458V223.244H171.418V224.448ZM178.562 231.126C177.816 231.126 177.144 230.963 176.546 230.636C175.949 230.3 175.478 229.829 175.132 229.222C174.796 228.615 174.628 227.915 174.628 227.122C174.628 226.329 174.801 225.629 175.146 225.022C175.501 224.415 175.982 223.949 176.588 223.622C177.195 223.286 177.872 223.118 178.618 223.118C179.365 223.118 180.042 223.286 180.648 223.622C181.255 223.949 181.731 224.415 182.076 225.022C182.431 225.629 182.608 226.329 182.608 227.122C182.608 227.915 182.426 228.615 182.062 229.222C181.708 229.829 181.222 230.3 180.606 230.636C180 230.963 179.318 231.126 178.562 231.126ZM178.562 229.418C178.917 229.418 179.248 229.334 179.556 229.166C179.874 228.989 180.126 228.727 180.312 228.382C180.499 228.037 180.592 227.617 180.592 227.122C180.592 226.385 180.396 225.82 180.004 225.428C179.622 225.027 179.15 224.826 178.59 224.826C178.03 224.826 177.559 225.027 177.176 225.428C176.803 225.82 176.616 226.385 176.616 227.122C176.616 227.859 176.798 228.429 177.162 228.83C177.536 229.222 178.002 229.418 178.562 229.418ZM191.368 223.244V231H189.394V230.02C189.142 230.356 188.811 230.622 188.4 230.818C187.999 231.005 187.56 231.098 187.084 231.098C186.477 231.098 185.941 230.972 185.474 230.72C185.007 230.459 184.639 230.081 184.368 229.586C184.107 229.082 183.976 228.485 183.976 227.794V223.244H185.936V227.514C185.936 228.13 186.09 228.606 186.398 228.942C186.706 229.269 187.126 229.432 187.658 229.432C188.199 229.432 188.624 229.269 188.932 228.942C189.24 228.606 189.394 228.13 189.394 227.514V223.244H191.368ZM197.6 223.132C198.524 223.132 199.271 223.426 199.84 224.014C200.409 224.593 200.694 225.405 200.694 226.45V231H198.734V226.716C198.734 226.1 198.58 225.629 198.272 225.302C197.964 224.966 197.544 224.798 197.012 224.798C196.471 224.798 196.041 224.966 195.724 225.302C195.416 225.629 195.262 226.1 195.262 226.716V231H193.302V223.244H195.262V224.21C195.523 223.874 195.855 223.613 196.256 223.426C196.667 223.23 197.115 223.132 197.6 223.132ZM202.054 227.094C202.054 226.31 202.208 225.615 202.516 225.008C202.833 224.401 203.262 223.935 203.804 223.608C204.345 223.281 204.947 223.118 205.61 223.118C206.114 223.118 206.594 223.23 207.052 223.454C207.509 223.669 207.873 223.958 208.144 224.322V220.64H210.132V231H208.144V229.852C207.901 230.235 207.56 230.543 207.122 230.776C206.683 231.009 206.174 231.126 205.596 231.126C204.942 231.126 204.345 230.958 203.804 230.622C203.262 230.286 202.833 229.815 202.516 229.208C202.208 228.592 202.054 227.887 202.054 227.094ZM208.158 227.122C208.158 226.646 208.064 226.24 207.878 225.904C207.691 225.559 207.439 225.297 207.122 225.12C206.804 224.933 206.464 224.84 206.1 224.84C205.736 224.84 205.4 224.929 205.092 225.106C204.784 225.283 204.532 225.545 204.336 225.89C204.149 226.226 204.056 226.627 204.056 227.094C204.056 227.561 204.149 227.971 204.336 228.326C204.532 228.671 204.784 228.937 205.092 229.124C205.409 229.311 205.745 229.404 206.1 229.404C206.464 229.404 206.804 229.315 207.122 229.138C207.439 228.951 207.691 228.69 207.878 228.354C208.064 228.009 208.158 227.598 208.158 227.122Z" fill="white"/>
<rect x="276" y="15" width="1" height="222" fill="#E0E0E0"/>
<path d="M438.645 113.57C438.413 113.57 432.073 113.261 432.073 107.076V100.118C432.073 100.118 432.846 93.7009 438.567 93.7009V87.2841H435.475C422.873 87.2841 412.746 97.4891 412.746 110.091V121.842L438.645 121.765V113.57Z" fill="white"/>
<path opacity="0.5" d="M412.823 157.56C412.823 170.161 423.105 184 435.63 184H445.371C457.973 184 468.1 170.084 468.1 157.482L468.023 124.239L412.668 124.393L412.823 157.56Z" fill="white"/>
<path opacity="0.5" d="M448.463 100.272V106.766C448.463 106.766 448.077 113.492 441.969 113.492V121.765H467.946V110.013C467.946 97.4117 457.741 87.2067 445.139 87.284H442.124V93.7781C442.201 93.7781 448.463 94.1647 448.463 100.272Z" fill="white"/>
<path opacity="0.5" d="M436.326 99.8083V106.612C436.326 108.699 438.027 110.323 440.037 110.323C442.124 110.323 443.748 108.622 443.748 106.612V99.8083C443.748 97.7209 442.047 96.0974 440.037 96.0974C438.027 96.0974 436.326 97.7209 436.326 99.8083Z" fill="white"/>
<path d="M452.715 37.805C452.715 37.9597 452.715 38.037 452.638 38.1143L440.036 54.1176C439.959 54.2723 439.727 54.3496 439.572 54.3496C439.418 54.3496 439.263 54.2723 439.186 54.1176L428.208 36.9546C428.13 36.8773 428.13 36.8 428.13 36.6454C428.13 36.5681 428.13 36.4908 428.208 36.4134C428.285 36.2588 428.517 36.1042 428.672 36.1815L433.388 36.4134L439.495 0.463866C439.572 0.231933 439.727 0 440.036 0C440.268 0 440.5 0.154622 440.577 0.463866L446.762 37.1092L452.329 37.3412C452.561 37.3412 452.715 37.4958 452.793 37.6504C452.715 37.7277 452.715 37.805 452.715 37.805Z" fill="url(#paint1_linear_409_1204)"/>
<path d="M452.793 44.3765L450.241 47.5462C457.741 48.7832 462.843 51.4118 462.843 54.3496C462.843 58.5244 452.793 61.926 440.423 61.926C428.053 61.926 418.003 58.5244 418.003 54.3496C418.003 51.3344 423.105 48.7832 430.527 47.5462L428.362 44.3765C416.766 46 408.571 49.8655 408.571 54.4269C408.571 60.3798 422.873 65.2504 440.5 65.2504C458.127 65.2504 472.43 60.3798 472.43 54.4269C472.352 49.8655 464.312 46 452.793 44.3765Z" fill="white"/>
<path d="M341.49 226.1C341.49 225.139 341.705 224.28 342.134 223.524C342.573 222.759 343.165 222.166 343.912 221.746C344.668 221.317 345.513 221.102 346.446 221.102C347.538 221.102 348.495 221.382 349.316 221.942C350.137 222.502 350.711 223.277 351.038 224.266H348.784C348.56 223.799 348.243 223.449 347.832 223.216C347.431 222.983 346.964 222.866 346.432 222.866C345.863 222.866 345.354 223.001 344.906 223.272C344.467 223.533 344.122 223.907 343.87 224.392C343.627 224.877 343.506 225.447 343.506 226.1C343.506 226.744 343.627 227.313 343.87 227.808C344.122 228.293 344.467 228.671 344.906 228.942C345.354 229.203 345.863 229.334 346.432 229.334C346.964 229.334 347.431 229.217 347.832 228.984C348.243 228.741 348.56 228.387 348.784 227.92H351.038C350.711 228.919 350.137 229.698 349.316 230.258C348.504 230.809 347.547 231.084 346.446 231.084C345.513 231.084 344.668 230.874 343.912 230.454C343.165 230.025 342.573 229.432 342.134 228.676C341.705 227.92 341.49 227.061 341.49 226.1ZM354.672 220.64V231H352.712V220.64H354.672ZM357.603 222.32C357.257 222.32 356.968 222.213 356.735 221.998C356.511 221.774 356.399 221.499 356.399 221.172C356.399 220.845 356.511 220.575 356.735 220.36C356.968 220.136 357.257 220.024 357.603 220.024C357.948 220.024 358.233 220.136 358.457 220.36C358.69 220.575 358.807 220.845 358.807 221.172C358.807 221.499 358.69 221.774 358.457 221.998C358.233 222.213 357.948 222.32 357.603 222.32ZM358.569 223.244V231H356.609V223.244H358.569ZM360.001 227.122C360.001 226.319 360.164 225.619 360.491 225.022C360.818 224.415 361.27 223.949 361.849 223.622C362.428 223.286 363.09 223.118 363.837 223.118C364.798 223.118 365.592 223.361 366.217 223.846C366.852 224.322 367.276 224.994 367.491 225.862H365.377C365.265 225.526 365.074 225.265 364.803 225.078C364.542 224.882 364.215 224.784 363.823 224.784C363.263 224.784 362.82 224.989 362.493 225.4C362.166 225.801 362.003 226.375 362.003 227.122C362.003 227.859 362.166 228.433 362.493 228.844C362.82 229.245 363.263 229.446 363.823 229.446C364.616 229.446 365.134 229.091 365.377 228.382H367.491C367.276 229.222 366.852 229.889 366.217 230.384C365.582 230.879 364.789 231.126 363.837 231.126C363.09 231.126 362.428 230.963 361.849 230.636C361.27 230.3 360.818 229.833 360.491 229.236C360.164 228.629 360.001 227.925 360.001 227.122ZM373.519 231L370.887 227.696V231H368.927V220.64H370.887V226.534L373.491 223.244H376.039L372.623 227.136L376.067 231H373.519ZM383.883 231.126C383.136 231.126 382.464 230.963 381.867 230.636C381.269 230.3 380.798 229.829 380.453 229.222C380.117 228.615 379.949 227.915 379.949 227.122C379.949 226.329 380.121 225.629 380.467 225.022C380.821 224.415 381.302 223.949 381.909 223.622C382.515 223.286 383.192 223.118 383.939 223.118C384.685 223.118 385.362 223.286 385.969 223.622C386.575 223.949 387.051 224.415 387.397 225.022C387.751 225.629 387.929 226.329 387.929 227.122C387.929 227.915 387.747 228.615 387.383 229.222C387.028 229.829 386.543 230.3 385.927 230.636C385.32 230.963 384.639 231.126 383.883 231.126ZM383.883 229.418C384.237 229.418 384.569 229.334 384.877 229.166C385.194 228.989 385.446 228.727 385.633 228.382C385.819 228.037 385.913 227.617 385.913 227.122C385.913 226.385 385.717 225.82 385.325 225.428C384.942 225.027 384.471 224.826 383.911 224.826C383.351 224.826 382.879 225.027 382.497 225.428C382.123 225.82 381.937 226.385 381.937 227.122C381.937 227.859 382.119 228.429 382.483 228.83C382.856 229.222 383.323 229.418 383.883 229.418ZM393.664 223.132C394.588 223.132 395.335 223.426 395.904 224.014C396.474 224.593 396.758 225.405 396.758 226.45V231H394.798V226.716C394.798 226.1 394.644 225.629 394.336 225.302C394.028 224.966 393.608 224.798 393.076 224.798C392.535 224.798 392.106 224.966 391.788 225.302C391.48 225.629 391.326 226.1 391.326 226.716V231H389.366V223.244H391.326V224.21C391.588 223.874 391.919 223.613 392.32 223.426C392.731 223.23 393.179 223.132 393.664 223.132ZM403.918 224.448C404.17 224.037 404.497 223.715 404.898 223.482C405.309 223.249 405.776 223.132 406.298 223.132V225.19H405.78C405.164 225.19 404.698 225.335 404.38 225.624C404.072 225.913 403.918 226.417 403.918 227.136V231H401.958V223.244H403.918V224.448ZM408.612 222.32C408.267 222.32 407.978 222.213 407.744 221.998C407.52 221.774 407.408 221.499 407.408 221.172C407.408 220.845 407.52 220.575 407.744 220.36C407.978 220.136 408.267 220.024 408.612 220.024C408.958 220.024 409.242 220.136 409.466 220.36C409.7 220.575 409.816 220.845 409.816 221.172C409.816 221.499 409.7 221.774 409.466 221.998C409.242 222.213 408.958 222.32 408.612 222.32ZM409.578 223.244V231H407.618V223.244H409.578ZM415.813 223.132C416.737 223.132 417.483 223.426 418.053 224.014C418.622 224.593 418.907 225.405 418.907 226.45V231H416.947V226.716C416.947 226.1 416.793 225.629 416.485 225.302C416.177 224.966 415.757 224.798 415.225 224.798C414.683 224.798 414.254 224.966 413.937 225.302C413.629 225.629 413.475 226.1 413.475 226.716V231H411.515V223.244H413.475V224.21C413.736 223.874 414.067 223.613 414.469 223.426C414.879 223.23 415.327 223.132 415.813 223.132ZM423.809 223.118C424.387 223.118 424.896 223.235 425.335 223.468C425.773 223.692 426.119 223.986 426.371 224.35V223.244H428.345V231.056C428.345 231.775 428.2 232.414 427.911 232.974C427.621 233.543 427.187 233.991 426.609 234.318C426.03 234.654 425.33 234.822 424.509 234.822C423.407 234.822 422.502 234.565 421.793 234.052C421.093 233.539 420.696 232.839 420.603 231.952H422.549C422.651 232.307 422.871 232.587 423.207 232.792C423.552 233.007 423.967 233.114 424.453 233.114C425.022 233.114 425.484 232.941 425.839 232.596C426.193 232.26 426.371 231.747 426.371 231.056V229.852C426.119 230.216 425.769 230.519 425.321 230.762C424.882 231.005 424.378 231.126 423.809 231.126C423.155 231.126 422.558 230.958 422.017 230.622C421.475 230.286 421.046 229.815 420.729 229.208C420.421 228.592 420.267 227.887 420.267 227.094C420.267 226.31 420.421 225.615 420.729 225.008C421.046 224.401 421.471 223.935 422.003 223.608C422.544 223.281 423.146 223.118 423.809 223.118ZM426.371 227.122C426.371 226.646 426.277 226.24 426.091 225.904C425.904 225.559 425.652 225.297 425.335 225.12C425.017 224.933 424.677 224.84 424.313 224.84C423.949 224.84 423.613 224.929 423.305 225.106C422.997 225.283 422.745 225.545 422.549 225.89C422.362 226.226 422.269 226.627 422.269 227.094C422.269 227.561 422.362 227.971 422.549 228.326C422.745 228.671 422.997 228.937 423.305 229.124C423.622 229.311 423.958 229.404 424.313 229.404C424.677 229.404 425.017 229.315 425.335 229.138C425.652 228.951 425.904 228.69 426.091 228.354C426.277 228.009 426.371 227.598 426.371 227.122ZM433.227 231.126C432.592 231.126 432.023 231.014 431.519 230.79C431.015 230.557 430.614 230.244 430.315 229.852C430.026 229.46 429.867 229.026 429.839 228.55H431.813C431.85 228.849 431.995 229.096 432.247 229.292C432.508 229.488 432.83 229.586 433.213 229.586C433.586 229.586 433.876 229.511 434.081 229.362C434.296 229.213 434.403 229.021 434.403 228.788C434.403 228.536 434.272 228.349 434.011 228.228C433.759 228.097 433.353 227.957 432.793 227.808C432.214 227.668 431.738 227.523 431.365 227.374C431.001 227.225 430.684 226.996 430.413 226.688C430.152 226.38 430.021 225.965 430.021 225.442C430.021 225.013 430.142 224.621 430.385 224.266C430.637 223.911 430.992 223.631 431.449 223.426C431.916 223.221 432.462 223.118 433.087 223.118C434.011 223.118 434.748 223.351 435.299 223.818C435.85 224.275 436.153 224.896 436.209 225.68H434.333C434.305 225.372 434.174 225.129 433.941 224.952C433.717 224.765 433.414 224.672 433.031 224.672C432.676 224.672 432.401 224.737 432.205 224.868C432.018 224.999 431.925 225.181 431.925 225.414C431.925 225.675 432.056 225.876 432.317 226.016C432.578 226.147 432.984 226.282 433.535 226.422C434.095 226.562 434.557 226.707 434.921 226.856C435.285 227.005 435.598 227.239 435.859 227.556C436.13 227.864 436.27 228.275 436.279 228.788C436.279 229.236 436.153 229.637 435.901 229.992C435.658 230.347 435.304 230.627 434.837 230.832C434.38 231.028 433.843 231.126 433.227 231.126ZM443.506 224.854V228.606C443.506 228.867 443.566 229.059 443.688 229.18C443.818 229.292 444.033 229.348 444.332 229.348H445.242V231H444.01C442.358 231 441.532 230.197 441.532 228.592V224.854H440.608V223.244H441.532V221.326H443.506V223.244H445.242V224.854H443.506ZM450.096 231.126C449.349 231.126 448.677 230.963 448.08 230.636C447.482 230.3 447.011 229.829 446.666 229.222C446.33 228.615 446.162 227.915 446.162 227.122C446.162 226.329 446.334 225.629 446.68 225.022C447.034 224.415 447.515 223.949 448.122 223.622C448.728 223.286 449.405 223.118 450.152 223.118C450.898 223.118 451.575 223.286 452.182 223.622C452.788 223.949 453.264 224.415 453.61 225.022C453.964 225.629 454.142 226.329 454.142 227.122C454.142 227.915 453.96 228.615 453.596 229.222C453.241 229.829 452.756 230.3 452.14 230.636C451.533 230.963 450.852 231.126 450.096 231.126ZM450.096 229.418C450.45 229.418 450.782 229.334 451.09 229.166C451.407 228.989 451.659 228.727 451.846 228.382C452.032 228.037 452.126 227.617 452.126 227.122C452.126 226.385 451.93 225.82 451.538 225.428C451.155 225.027 450.684 224.826 450.124 224.826C449.564 224.826 449.092 225.027 448.71 225.428C448.336 225.82 448.15 226.385 448.15 227.122C448.15 227.859 448.332 228.429 448.696 228.83C449.069 229.222 449.536 229.418 450.096 229.418ZM468.547 223.132C469.499 223.132 470.265 223.426 470.843 224.014C471.431 224.593 471.725 225.405 471.725 226.45V231H469.765V226.716C469.765 226.109 469.611 225.647 469.303 225.33C468.995 225.003 468.575 224.84 468.043 224.84C467.511 224.84 467.087 225.003 466.769 225.33C466.461 225.647 466.307 226.109 466.307 226.716V231H464.347V226.716C464.347 226.109 464.193 225.647 463.885 225.33C463.577 225.003 463.157 224.84 462.625 224.84C462.084 224.84 461.655 225.003 461.337 225.33C461.029 225.647 460.875 226.109 460.875 226.716V231H458.915V223.244H460.875V224.182C461.127 223.855 461.449 223.599 461.841 223.412C462.243 223.225 462.681 223.132 463.157 223.132C463.764 223.132 464.305 223.263 464.781 223.524C465.257 223.776 465.626 224.14 465.887 224.616C466.139 224.168 466.503 223.809 466.979 223.538C467.465 223.267 467.987 223.132 468.547 223.132ZM477.029 231.126C476.282 231.126 475.61 230.963 475.013 230.636C474.416 230.3 473.944 229.829 473.599 229.222C473.263 228.615 473.095 227.915 473.095 227.122C473.095 226.329 473.268 225.629 473.613 225.022C473.968 224.415 474.448 223.949 475.055 223.622C475.662 223.286 476.338 223.118 477.085 223.118C477.832 223.118 478.508 223.286 479.115 223.622C479.722 223.949 480.198 224.415 480.543 225.022C480.898 225.629 481.075 226.329 481.075 227.122C481.075 227.915 480.893 228.615 480.529 229.222C480.174 229.829 479.689 230.3 479.073 230.636C478.466 230.963 477.785 231.126 477.029 231.126ZM477.029 229.418C477.384 229.418 477.715 229.334 478.023 229.166C478.34 228.989 478.592 228.727 478.779 228.382C478.966 228.037 479.059 227.617 479.059 227.122C479.059 226.385 478.863 225.82 478.471 225.428C478.088 225.027 477.617 224.826 477.057 224.826C476.497 224.826 476.026 225.027 475.643 225.428C475.27 225.82 475.083 226.385 475.083 227.122C475.083 227.859 475.265 228.429 475.629 228.83C476.002 229.222 476.469 229.418 477.029 229.418ZM485.747 229.194L487.707 223.244H489.793L486.923 231H484.543L481.687 223.244H483.787L485.747 229.194ZM498.104 226.954C498.104 227.234 498.085 227.486 498.048 227.71H492.378C492.424 228.27 492.62 228.709 492.966 229.026C493.311 229.343 493.736 229.502 494.24 229.502C494.968 229.502 495.486 229.189 495.794 228.564H497.908C497.684 229.311 497.254 229.927 496.62 230.412C495.985 230.888 495.206 231.126 494.282 231.126C493.535 231.126 492.863 230.963 492.266 230.636C491.678 230.3 491.216 229.829 490.88 229.222C490.553 228.615 490.39 227.915 490.39 227.122C490.39 226.319 490.553 225.615 490.88 225.008C491.206 224.401 491.664 223.935 492.252 223.608C492.84 223.281 493.516 223.118 494.282 223.118C495.019 223.118 495.677 223.277 496.256 223.594C496.844 223.911 497.296 224.364 497.614 224.952C497.94 225.531 498.104 226.198 498.104 226.954ZM496.074 226.394C496.064 225.89 495.882 225.489 495.528 225.19C495.173 224.882 494.739 224.728 494.226 224.728C493.74 224.728 493.33 224.877 492.994 225.176C492.667 225.465 492.466 225.871 492.392 226.394H496.074ZM505.152 224.854V228.606C505.152 228.867 505.213 229.059 505.334 229.18C505.465 229.292 505.68 229.348 505.978 229.348H506.888V231H505.656C504.004 231 503.178 230.197 503.178 228.592V224.854H502.254V223.244H503.178V221.326H505.152V223.244H506.888V224.854H505.152ZM512.666 223.132C513.254 223.132 513.777 223.263 514.234 223.524C514.691 223.776 515.046 224.154 515.298 224.658C515.559 225.153 515.69 225.75 515.69 226.45V231H513.73V226.716C513.73 226.1 513.576 225.629 513.268 225.302C512.96 224.966 512.54 224.798 512.008 224.798C511.467 224.798 511.037 224.966 510.72 225.302C510.412 225.629 510.258 226.1 510.258 226.716V231H508.298V220.64H510.258V224.21C510.51 223.874 510.846 223.613 511.266 223.426C511.686 223.23 512.153 223.132 512.666 223.132ZM524.764 226.954C524.764 227.234 524.745 227.486 524.708 227.71H519.038C519.085 228.27 519.281 228.709 519.626 229.026C519.971 229.343 520.396 229.502 520.9 229.502C521.628 229.502 522.146 229.189 522.454 228.564H524.568C524.344 229.311 523.915 229.927 523.28 230.412C522.645 230.888 521.866 231.126 520.942 231.126C520.195 231.126 519.523 230.963 518.926 230.636C518.338 230.3 517.876 229.829 517.54 229.222C517.213 228.615 517.05 227.915 517.05 227.122C517.05 226.319 517.213 225.615 517.54 225.008C517.867 224.401 518.324 223.935 518.912 223.608C519.5 223.281 520.177 223.118 520.942 223.118C521.679 223.118 522.337 223.277 522.916 223.594C523.504 223.911 523.957 224.364 524.274 224.952C524.601 225.531 524.764 226.198 524.764 226.954ZM522.734 226.394C522.725 225.89 522.543 225.489 522.188 225.19C521.833 224.882 521.399 224.728 520.886 224.728C520.401 224.728 519.99 224.877 519.654 225.176C519.327 225.465 519.127 225.871 519.052 226.394H522.734ZM528.155 224.448C528.407 224.037 528.733 223.715 529.135 223.482C529.545 223.249 530.012 223.132 530.535 223.132V225.19H530.017C529.401 225.19 528.934 225.335 528.617 225.624C528.309 225.913 528.155 226.417 528.155 227.136V231H526.195V223.244H528.155V224.448ZM539.065 226.954C539.065 227.234 539.046 227.486 539.009 227.71H533.339C533.385 228.27 533.581 228.709 533.927 229.026C534.272 229.343 534.697 229.502 535.201 229.502C535.929 229.502 536.447 229.189 536.755 228.564H538.869C538.645 229.311 538.215 229.927 537.581 230.412C536.946 230.888 536.167 231.126 535.243 231.126C534.496 231.126 533.824 230.963 533.227 230.636C532.639 230.3 532.177 229.829 531.841 229.222C531.514 228.615 531.351 227.915 531.351 227.122C531.351 226.319 531.514 225.615 531.841 225.008C532.167 224.401 532.625 223.935 533.213 223.608C533.801 223.281 534.477 223.118 535.243 223.118C535.98 223.118 536.638 223.277 537.217 223.594C537.805 223.911 538.257 224.364 538.575 224.952C538.901 225.531 539.065 226.198 539.065 226.954ZM537.035 226.394C537.025 225.89 536.843 225.489 536.489 225.19C536.134 224.882 535.7 224.728 535.187 224.728C534.701 224.728 534.291 224.877 533.955 225.176C533.628 225.465 533.427 225.871 533.353 226.394H537.035Z" fill="white"/>
<defs>
<linearGradient id="paint0_linear_409_1204" x1="77.7329" y1="64.3693" x2="134.335" y2="64.3693" gradientUnits="userSpaceOnUse">
<stop offset="0.4" stop-color="white"/>
<stop offset="0.9" stop-color="white" stop-opacity="0"/>
</linearGradient>
<linearGradient id="paint1_linear_409_1204" x1="440.012" y1="55.0569" x2="441.317" y2="-0.72935" gradientUnits="userSpaceOnUse">
<stop offset="0.4" stop-color="white"/>
<stop offset="0.8" stop-color="white" stop-opacity="0"/>
</linearGradient>
</defs>
</svg>
