<svg width="120" height="364" viewBox="0 0 120 364" fill="none" xmlns="http://www.w3.org/2000/svg">
<path d="M10.7273 5.228V6.81H8.12333V15H6.16333V6.81H3.55933V5.228H10.7273ZM11.6534 11.094C11.6534 10.31 11.8074 9.61467 12.1154 9.008C12.4327 8.40133 12.8574 7.93467 13.3894 7.608C13.9307 7.28133 14.5327 7.118 15.1954 7.118C15.7741 7.118 16.2781 7.23467 16.7074 7.468C17.1461 7.70133 17.4961 7.99533 17.7574 8.35V7.244H19.7314V15H17.7574V13.866C17.5054 14.23 17.1554 14.5333 16.7074 14.776C16.2687 15.0093 15.7601 15.126 15.1814 15.126C14.5281 15.126 13.9307 14.958 13.3894 14.622C12.8574 14.286 12.4327 13.8147 12.1154 13.208C11.8074 12.592 11.6534 11.8873 11.6534 11.094ZM17.7574 11.122C17.7574 10.646 17.6641 10.24 17.4774 9.904C17.2907 9.55867 17.0387 9.29733 16.7214 9.12C16.4041 8.93333 16.0634 8.84 15.6994 8.84C15.3354 8.84 14.9994 8.92867 14.6914 9.106C14.3834 9.28333 14.1314 9.54467 13.9354 9.89C13.7487 10.226 13.6554 10.6273 13.6554 11.094C13.6554 11.5607 13.7487 11.9713 13.9354 12.326C14.1314 12.6713 14.3834 12.9373 14.6914 13.124C15.0087 13.3107 15.3447 13.404 15.6994 13.404C16.0634 13.404 16.4041 13.3153 16.7214 13.138C17.0387 12.9513 17.2907 12.69 17.4774 12.354C17.6641 12.0087 17.7574 11.598 17.7574 11.122ZM23.6057 8.364C23.8577 8.00933 24.203 7.71533 24.6417 7.482C25.0897 7.23933 25.5984 7.118 26.1677 7.118C26.8304 7.118 27.4277 7.28133 27.9597 7.608C28.501 7.93467 28.9257 8.40133 29.2337 9.008C29.551 9.60533 29.7097 10.3007 29.7097 11.094C29.7097 11.8873 29.551 12.592 29.2337 13.208C28.9257 13.8147 28.501 14.286 27.9597 14.622C27.4277 14.958 26.8304 15.126 26.1677 15.126C25.5984 15.126 25.0944 15.0093 24.6557 14.776C24.2264 14.5427 23.8764 14.2487 23.6057 13.894V18.696H21.6457V7.244H23.6057V8.364ZM27.7077 11.094C27.7077 10.6273 27.6097 10.226 27.4137 9.89C27.227 9.54467 26.975 9.28333 26.6577 9.106C26.3497 8.92867 26.0137 8.84 25.6497 8.84C25.295 8.84 24.959 8.93333 24.6417 9.12C24.3337 9.29733 24.0817 9.55867 23.8857 9.904C23.699 10.2493 23.6057 10.6553 23.6057 11.122C23.6057 11.5887 23.699 11.9947 23.8857 12.34C24.0817 12.6853 24.3337 12.9513 24.6417 13.138C24.959 13.3153 25.295 13.404 25.6497 13.404C26.0137 13.404 26.3497 13.3107 26.6577 13.124C26.975 12.9373 27.227 12.6713 27.4137 12.326C27.6097 11.9807 27.7077 11.57 27.7077 11.094ZM33.9659 11.094C33.9659 10.31 34.1199 9.61467 34.4279 9.008C34.7452 8.40133 35.1699 7.93467 35.7019 7.608C36.2432 7.28133 36.8452 7.118 37.5079 7.118C38.0866 7.118 38.5906 7.23467 39.0199 7.468C39.4586 7.70133 39.8086 7.99533 40.0699 8.35V7.244H42.0439V15H40.0699V13.866C39.8179 14.23 39.4679 14.5333 39.0199 14.776C38.5812 15.0093 38.0726 15.126 37.4939 15.126C36.8406 15.126 36.2432 14.958 35.7019 14.622C35.1699 14.286 34.7452 13.8147 34.4279 13.208C34.1199 12.592 33.9659 11.8873 33.9659 11.094ZM40.0699 11.122C40.0699 10.646 39.9766 10.24 39.7899 9.904C39.6032 9.55867 39.3512 9.29733 39.0339 9.12C38.7166 8.93333 38.3759 8.84 38.0119 8.84C37.6479 8.84 37.3119 8.92867 37.0039 9.106C36.6959 9.28333 36.4439 9.54467 36.2479 9.89C36.0612 10.226 35.9679 10.6273 35.9679 11.094C35.9679 11.5607 36.0612 11.9713 36.2479 12.326C36.4439 12.6713 36.6959 12.9373 37.0039 13.124C37.3212 13.3107 37.6572 13.404 38.0119 13.404C38.3759 13.404 38.7166 13.3153 39.0339 13.138C39.3512 12.9513 39.6032 12.69 39.7899 12.354C39.9766 12.0087 40.0699 11.598 40.0699 11.122ZM48.2562 7.132C49.1802 7.132 49.9269 7.426 50.4962 8.014C51.0655 8.59267 51.3502 9.40467 51.3502 10.45V15H49.3902V10.716C49.3902 10.1 49.2362 9.62867 48.9282 9.302C48.6202 8.966 48.2002 8.798 47.6682 8.798C47.1269 8.798 46.6975 8.966 46.3802 9.302C46.0722 9.62867 45.9182 10.1 45.9182 10.716V15H43.9582V7.244H45.9182V8.21C46.1795 7.874 46.5109 7.61267 46.9122 7.426C47.3229 7.23 47.7709 7.132 48.2562 7.132ZM52.71 11.094C52.71 10.31 52.864 9.61467 53.172 9.008C53.4894 8.40133 53.9187 7.93467 54.46 7.608C55.0014 7.28133 55.6034 7.118 56.266 7.118C56.77 7.118 57.2507 7.23 57.708 7.454C58.1654 7.66867 58.5294 7.958 58.8 8.322V4.64H60.788V15H58.8V13.852C58.5574 14.2347 58.2167 14.5427 57.778 14.776C57.3394 15.0093 56.8307 15.126 56.252 15.126C55.5987 15.126 55.0014 14.958 54.46 14.622C53.9187 14.286 53.4894 13.8147 53.172 13.208C52.864 12.592 52.71 11.8873 52.71 11.094ZM58.814 11.122C58.814 10.646 58.7207 10.24 58.534 9.904C58.3474 9.55867 58.0954 9.29733 57.778 9.12C57.4607 8.93333 57.12 8.84 56.756 8.84C56.392 8.84 56.056 8.92867 55.748 9.106C55.44 9.28333 55.188 9.54467 54.992 9.89C54.8054 10.226 54.712 10.6273 54.712 11.094C54.712 11.5607 54.8054 11.9713 54.992 12.326C55.188 12.6713 55.44 12.9373 55.748 13.124C56.0654 13.3107 56.4014 13.404 56.756 13.404C57.12 13.404 57.4607 13.3153 57.778 13.138C58.0954 12.9513 58.3474 12.69 58.534 12.354C58.7207 12.0087 58.814 11.598 58.814 11.122ZM65.5343 11.094C65.5343 10.31 65.6883 9.61467 65.9963 9.008C66.3136 8.40133 66.7429 7.93467 67.2843 7.608C67.8256 7.28133 68.4276 7.118 69.0903 7.118C69.5943 7.118 70.0749 7.23 70.5323 7.454C70.9896 7.66867 71.3536 7.958 71.6243 8.322V4.64H73.6123V15H71.6243V13.852C71.3816 14.2347 71.0409 14.5427 70.6023 14.776C70.1636 15.0093 69.6549 15.126 69.0763 15.126C68.4229 15.126 67.8256 14.958 67.2843 14.622C66.7429 14.286 66.3136 13.8147 65.9963 13.208C65.6883 12.592 65.5343 11.8873 65.5343 11.094ZM71.6383 11.122C71.6383 10.646 71.5449 10.24 71.3583 9.904C71.1716 9.55867 70.9196 9.29733 70.6023 9.12C70.2849 8.93333 69.9443 8.84 69.5803 8.84C69.2163 8.84 68.8803 8.92867 68.5723 9.106C68.2643 9.28333 68.0123 9.54467 67.8163 9.89C67.6296 10.226 67.5363 10.6273 67.5363 11.094C67.5363 11.5607 67.6296 11.9713 67.8163 12.326C68.0123 12.6713 68.2643 12.9373 68.5723 13.124C68.8896 13.3107 69.2256 13.404 69.5803 13.404C69.9443 13.404 70.2849 13.3153 70.6023 13.138C70.9196 12.9513 71.1716 12.69 71.3583 12.354C71.5449 12.0087 71.6383 11.598 71.6383 11.122ZM77.4865 8.448C77.7385 8.03733 78.0652 7.71533 78.4665 7.482C78.8772 7.24867 79.3439 7.132 79.8665 7.132V9.19H79.3485C78.7325 9.19 78.2659 9.33467 77.9485 9.624C77.6405 9.91333 77.4865 10.4173 77.4865 11.136V15H75.5265V7.244H77.4865V8.448ZM80.6827 11.094C80.6827 10.31 80.8367 9.61467 81.1447 9.008C81.462 8.40133 81.8867 7.93467 82.4187 7.608C82.96 7.28133 83.562 7.118 84.2247 7.118C84.8034 7.118 85.3074 7.23467 85.7367 7.468C86.1754 7.70133 86.5254 7.99533 86.7867 8.35V7.244H88.7607V15H86.7867V13.866C86.5347 14.23 86.1847 14.5333 85.7367 14.776C85.298 15.0093 84.7894 15.126 84.2107 15.126C83.5574 15.126 82.96 14.958 82.4187 14.622C81.8867 14.286 81.462 13.8147 81.1447 13.208C80.8367 12.592 80.6827 11.8873 80.6827 11.094ZM86.7867 11.122C86.7867 10.646 86.6934 10.24 86.5067 9.904C86.32 9.55867 86.068 9.29733 85.7507 9.12C85.4334 8.93333 85.0927 8.84 84.7287 8.84C84.3647 8.84 84.0287 8.92867 83.7207 9.106C83.4127 9.28333 83.1607 9.54467 82.9647 9.89C82.778 10.226 82.6847 10.6273 82.6847 11.094C82.6847 11.5607 82.778 11.9713 82.9647 12.326C83.1607 12.6713 83.4127 12.9373 83.7207 13.124C84.038 13.3107 84.374 13.404 84.7287 13.404C85.0927 13.404 85.4334 13.3153 85.7507 13.138C86.068 12.9513 86.32 12.69 86.5067 12.354C86.6934 12.0087 86.7867 11.598 86.7867 11.122ZM93.713 7.118C94.2917 7.118 94.8003 7.23467 95.239 7.468C95.6777 7.692 96.023 7.986 96.275 8.35V7.244H98.249V15.056C98.249 15.7747 98.1043 16.414 97.815 16.974C97.5257 17.5433 97.0917 17.9913 96.513 18.318C95.9343 18.654 95.2343 18.822 94.413 18.822C93.3117 18.822 92.4063 18.5653 91.697 18.052C90.997 17.5387 90.6003 16.8387 90.507 15.952H92.453C92.5557 16.3067 92.775 16.5867 93.111 16.792C93.4563 17.0067 93.8717 17.114 94.357 17.114C94.9263 17.114 95.3883 16.9413 95.743 16.596C96.0977 16.26 96.275 15.7467 96.275 15.056V13.852C96.023 14.216 95.673 14.5193 95.225 14.762C94.7863 15.0047 94.2823 15.126 93.713 15.126C93.0597 15.126 92.4623 14.958 91.921 14.622C91.3797 14.286 90.9503 13.8147 90.633 13.208C90.325 12.592 90.171 11.8873 90.171 11.094C90.171 10.31 90.325 9.61467 90.633 9.008C90.9503 8.40133 91.375 7.93467 91.907 7.608C92.4483 7.28133 93.0503 7.118 93.713 7.118ZM96.275 11.122C96.275 10.646 96.1817 10.24 95.995 9.904C95.8083 9.55867 95.5563 9.29733 95.239 9.12C94.9217 8.93333 94.581 8.84 94.217 8.84C93.853 8.84 93.517 8.92867 93.209 9.106C92.901 9.28333 92.649 9.54467 92.453 9.89C92.2663 10.226 92.173 10.6273 92.173 11.094C92.173 11.5607 92.2663 11.9713 92.453 12.326C92.649 12.6713 92.901 12.9373 93.209 13.124C93.5263 13.3107 93.8623 13.404 94.217 13.404C94.581 13.404 94.9217 13.3153 95.239 13.138C95.5563 12.9513 95.8083 12.69 95.995 12.354C96.1817 12.0087 96.275 11.598 96.275 11.122ZM105.781 8.854V12.606C105.781 12.8673 105.842 13.0587 105.963 13.18C106.094 13.292 106.309 13.348 106.607 13.348H107.517V15H106.285C104.633 15 103.807 14.1973 103.807 12.592V8.854H102.883V7.244H103.807V5.326H105.781V7.244H107.517V8.854H105.781ZM112.371 15.126C111.624 15.126 110.952 14.9627 110.355 14.636C109.758 14.3 109.286 13.8287 108.941 13.222C108.605 12.6153 108.437 11.9153 108.437 11.122C108.437 10.3287 108.61 9.62867 108.955 9.022C109.31 8.41533 109.79 7.94867 110.397 7.622C111.004 7.286 111.68 7.118 112.427 7.118C113.174 7.118 113.85 7.286 114.457 7.622C115.064 7.94867 115.54 8.41533 115.885 9.022C116.24 9.62867 116.417 10.3287 116.417 11.122C116.417 11.9153 116.235 12.6153 115.871 13.222C115.516 13.8287 115.031 14.3 114.415 14.636C113.808 14.9627 113.127 15.126 112.371 15.126ZM112.371 13.418C112.726 13.418 113.057 13.334 113.365 13.166C113.682 12.9887 113.934 12.7273 114.121 12.382C114.308 12.0367 114.401 11.6167 114.401 11.122C114.401 10.3847 114.205 9.82 113.813 9.428C113.43 9.02667 112.959 8.826 112.399 8.826C111.839 8.826 111.368 9.02667 110.985 9.428C110.612 9.82 110.425 10.3847 110.425 11.122C110.425 11.8593 110.607 12.4287 110.971 12.83C111.344 13.222 111.811 13.418 112.371 13.418ZM20.2561 25.64V36H18.2961V25.64H20.2561ZM25.6366 36.126C24.8899 36.126 24.2179 35.9627 23.6206 35.636C23.0232 35.3 22.5519 34.8287 22.2066 34.222C21.8706 33.6153 21.7026 32.9153 21.7026 32.122C21.7026 31.3287 21.8752 30.6287 22.2206 30.022C22.5752 29.4153 23.0559 28.9487 23.6626 28.622C24.2692 28.286 24.9459 28.118 25.6926 28.118C26.4392 28.118 27.1159 28.286 27.7226 28.622C28.3292 28.9487 28.8052 29.4153 29.1506 30.022C29.5052 30.6287 29.6826 31.3287 29.6826 32.122C29.6826 32.9153 29.5006 33.6153 29.1366 34.222C28.7819 34.8287 28.2966 35.3 27.6806 35.636C27.0739 35.9627 26.3926 36.126 25.6366 36.126ZM25.6366 34.418C25.9912 34.418 26.3226 34.334 26.6306 34.166C26.9479 33.9887 27.1999 33.7273 27.3866 33.382C27.5732 33.0367 27.6666 32.6167 27.6666 32.122C27.6666 31.3847 27.4706 30.82 27.0786 30.428C26.6959 30.0267 26.2246 29.826 25.6646 29.826C25.1046 29.826 24.6332 30.0267 24.2506 30.428C23.8772 30.82 23.6906 31.3847 23.6906 32.122C23.6906 32.8593 23.8726 33.4287 24.2366 33.83C24.6099 34.222 25.0766 34.418 25.6366 34.418ZM34.5643 36.126C33.8176 36.126 33.1456 35.9627 32.5483 35.636C31.951 35.3 31.4796 34.8287 31.1343 34.222C30.7983 33.6153 30.6303 32.9153 30.6303 32.122C30.6303 31.3287 30.803 30.6287 31.1483 30.022C31.503 29.4153 31.9836 28.9487 32.5903 28.622C33.197 28.286 33.8736 28.118 34.6203 28.118C35.367 28.118 36.0436 28.286 36.6503 28.622C37.257 28.9487 37.733 29.4153 38.0783 30.022C38.433 30.6287 38.6103 31.3287 38.6103 32.122C38.6103 32.9153 38.4283 33.6153 38.0643 34.222C37.7096 34.8287 37.2243 35.3 36.6083 35.636C36.0016 35.9627 35.3203 36.126 34.5643 36.126ZM34.5643 34.418C34.919 34.418 35.2503 34.334 35.5583 34.166C35.8756 33.9887 36.1276 33.7273 36.3143 33.382C36.501 33.0367 36.5943 32.6167 36.5943 32.122C36.5943 31.3847 36.3983 30.82 36.0063 30.428C35.6236 30.0267 35.1523 29.826 34.5923 29.826C34.0323 29.826 33.561 30.0267 33.1783 30.428C32.805 30.82 32.6183 31.3847 32.6183 32.122C32.6183 32.8593 32.8003 33.4287 33.1643 33.83C33.5376 34.222 34.0043 34.418 34.5643 34.418ZM44.64 36L42.008 32.696V36H40.048V25.64H42.008V31.534L44.612 28.244H47.16L43.744 32.136L47.188 36H44.64ZM51.0557 32.094C51.0557 31.31 51.2097 30.6147 51.5177 30.008C51.8351 29.4013 52.2598 28.9347 52.7918 28.608C53.3331 28.2813 53.9351 28.118 54.5978 28.118C55.1764 28.118 55.6804 28.2347 56.1098 28.468C56.5484 28.7013 56.8984 28.9953 57.1598 29.35V28.244H59.1338V36H57.1598V34.866C56.9078 35.23 56.5578 35.5333 56.1098 35.776C55.6711 36.0093 55.1624 36.126 54.5838 36.126C53.9304 36.126 53.3331 35.958 52.7918 35.622C52.2598 35.286 51.8351 34.8147 51.5177 34.208C51.2097 33.592 51.0557 32.8873 51.0557 32.094ZM57.1598 32.122C57.1598 31.646 57.0664 31.24 56.8798 30.904C56.6931 30.5587 56.4411 30.2973 56.1238 30.12C55.8064 29.9333 55.4658 29.84 55.1018 29.84C54.7378 29.84 54.4018 29.9287 54.0938 30.106C53.7858 30.2833 53.5338 30.5447 53.3378 30.89C53.1511 31.226 53.0578 31.6273 53.0578 32.094C53.0578 32.5607 53.1511 32.9713 53.3378 33.326C53.5338 33.6713 53.7858 33.9373 54.0938 34.124C54.4111 34.3107 54.7471 34.404 55.1018 34.404C55.4658 34.404 55.8064 34.3153 56.1238 34.138C56.4411 33.9513 56.6931 33.69 56.8798 33.354C57.0664 33.0087 57.1598 32.598 57.1598 32.122ZM63.008 29.448C63.26 29.0373 63.5867 28.7153 63.988 28.482C64.3987 28.2487 64.8654 28.132 65.388 28.132V30.19H64.87C64.254 30.19 63.7874 30.3347 63.47 30.624C63.162 30.9133 63.008 31.4173 63.008 32.136V36H61.048V28.244H63.008V29.448ZM70.1522 36.126C69.4055 36.126 68.7335 35.9627 68.1362 35.636C67.5389 35.3 67.0675 34.8287 66.7222 34.222C66.3862 33.6153 66.2182 32.9153 66.2182 32.122C66.2182 31.3287 66.3909 30.6287 66.7362 30.022C67.0909 29.4153 67.5715 28.9487 68.1782 28.622C68.7849 28.286 69.4615 28.118 70.2082 28.118C70.9549 28.118 71.6315 28.286 72.2382 28.622C72.8449 28.9487 73.3209 29.4153 73.6662 30.022C74.0209 30.6287 74.1982 31.3287 74.1982 32.122C74.1982 32.9153 74.0162 33.6153 73.6522 34.222C73.2975 34.8287 72.8122 35.3 72.1962 35.636C71.5895 35.9627 70.9082 36.126 70.1522 36.126ZM70.1522 34.418C70.5069 34.418 70.8382 34.334 71.1462 34.166C71.4635 33.9887 71.7155 33.7273 71.9022 33.382C72.0889 33.0367 72.1822 32.6167 72.1822 32.122C72.1822 31.3847 71.9862 30.82 71.5942 30.428C71.2115 30.0267 70.7402 29.826 70.1802 29.826C69.6202 29.826 69.1489 30.0267 68.7662 30.428C68.3929 30.82 68.2062 31.3847 68.2062 32.122C68.2062 32.8593 68.3882 33.4287 68.7522 33.83C69.1255 34.222 69.5922 34.418 70.1522 34.418ZM82.9579 28.244V36H80.9839V35.02C80.7319 35.356 80.4006 35.622 79.9899 35.818C79.5886 36.0047 79.1499 36.098 78.6739 36.098C78.0673 36.098 77.5306 35.972 77.0639 35.72C76.5973 35.4587 76.2286 35.0807 75.9579 34.586C75.6966 34.082 75.5659 33.4847 75.5659 32.794V28.244H77.5259V32.514C77.5259 33.13 77.6799 33.606 77.9879 33.942C78.2959 34.2687 78.7159 34.432 79.2479 34.432C79.7893 34.432 80.2139 34.2687 80.5219 33.942C80.8299 33.606 80.9839 33.13 80.9839 32.514V28.244H82.9579ZM89.1898 28.132C90.1138 28.132 90.8604 28.426 91.4298 29.014C91.9991 29.5927 92.2838 30.4047 92.2838 31.45V36H90.3238V31.716C90.3238 31.1 90.1698 30.6287 89.8618 30.302C89.5538 29.966 89.1338 29.798 88.6018 29.798C88.0604 29.798 87.6311 29.966 87.3138 30.302C87.0058 30.6287 86.8518 31.1 86.8518 31.716V36H84.8918V28.244H86.8518V29.21C87.1131 28.874 87.4444 28.6127 87.8458 28.426C88.2564 28.23 88.7044 28.132 89.1898 28.132ZM93.6436 32.094C93.6436 31.31 93.7976 30.6147 94.1056 30.008C94.423 29.4013 94.8523 28.9347 95.3936 28.608C95.935 28.2813 96.537 28.118 97.1996 28.118C97.7036 28.118 98.1843 28.23 98.6416 28.454C99.099 28.6687 99.463 28.958 99.7336 29.322V25.64H101.722V36H99.7336V34.852C99.491 35.2347 99.1503 35.5427 98.7116 35.776C98.273 36.0093 97.7643 36.126 97.1856 36.126C96.5323 36.126 95.935 35.958 95.3936 35.622C94.8523 35.286 94.423 34.8147 94.1056 34.208C93.7976 33.592 93.6436 32.8873 93.6436 32.094ZM99.7476 32.122C99.7476 31.646 99.6543 31.24 99.4676 30.904C99.281 30.5587 99.029 30.2973 98.7116 30.12C98.3943 29.9333 98.0536 29.84 97.6896 29.84C97.3256 29.84 96.9896 29.9287 96.6816 30.106C96.3736 30.2833 96.1216 30.5447 95.9256 30.89C95.739 31.226 95.6456 31.6273 95.6456 32.094C95.6456 32.5607 95.739 32.9713 95.9256 33.326C96.1216 33.6713 96.3736 33.9373 96.6816 34.124C96.999 34.3107 97.335 34.404 97.6896 34.404C98.0536 34.404 98.3943 34.3153 98.7116 34.138C99.029 33.9513 99.281 33.69 99.4676 33.354C99.6543 33.0087 99.7476 32.598 99.7476 32.122Z" fill="white"/>
<path d="M53.7916 80.9235C53.7332 80.9208 53.6761 80.9059 53.6238 80.88L42.9673 74.6228C42.9223 74.5959 42.8843 74.5588 42.8563 74.5146C42.8282 74.4704 42.8109 74.4202 42.8057 74.368C42.7991 74.3189 42.8035 74.2689 42.8185 74.2216C42.8336 74.1743 42.8589 74.1309 42.8927 74.0946L52.3313 66.0852C52.3906 66.035 52.4651 66.0066 52.5426 66.0044C52.5838 65.9985 52.6257 65.9985 52.6669 66.0044C52.7216 66.0277 52.769 66.0655 52.8041 66.1136C52.8391 66.1618 52.8604 66.2185 52.8657 66.2778L53.1143 69.0988C53.8475 69.0305 54.6118 68.9994 55.3885 68.9994C60.0703 69.0446 64.6893 70.0823 68.9406 72.0441C73.228 74.0636 76.1423 76.6982 77.1365 79.4633C77.1649 79.5425 77.1613 79.6296 77.1265 79.7062C77.0917 79.7828 77.0284 79.8427 76.95 79.8734C76.911 79.8799 76.8711 79.8799 76.832 79.8734C76.7682 79.8734 76.7058 79.8545 76.6528 79.8191C76.5997 79.7837 76.5583 79.7334 76.5337 79.6746C75.3593 76.8287 71.0346 75.0516 65.2621 75.0516C61.3522 75.0754 57.4788 75.8059 53.8288 77.2077L54.1147 80.5569C54.1185 80.6162 54.1067 80.6755 54.0805 80.7289C54.0544 80.7823 54.0147 80.828 53.9655 80.8614C53.9137 80.8963 53.8539 80.9177 53.7916 80.9235Z" fill="url(#paint0_linear_397_1701)"/>
<path opacity="0.5" d="M75.1042 111.141C74.7847 111.121 74.4647 111.172 74.1672 111.29C73.8697 111.408 73.6019 111.591 73.383 111.824C72.9865 112.315 72.7832 112.934 72.8113 113.564V117.031C72.7977 117.153 72.7398 117.265 72.6486 117.346C72.5575 117.428 72.4396 117.473 72.3173 117.473C72.1951 117.473 72.0772 117.428 71.986 117.346C71.8949 117.265 71.837 117.153 71.8234 117.031V111.576C71.8234 110.928 71.5661 110.307 71.1081 109.849C70.6501 109.391 70.029 109.134 69.3814 109.134C68.7337 109.134 68.1126 109.391 67.6546 109.849C67.1967 110.307 66.9394 110.928 66.9394 111.576V117.031C66.9257 117.153 66.8678 117.265 66.7767 117.346C66.6856 117.428 66.5676 117.473 66.4454 117.473C66.3232 117.473 66.2052 117.428 66.1141 117.346C66.023 117.265 65.965 117.153 65.9514 117.031V109.761C65.9198 109.134 65.6484 108.543 65.1933 108.11C64.7382 107.678 64.1343 107.436 63.5063 107.436C62.8784 107.436 62.2744 107.678 61.8193 108.11C61.3642 108.543 61.0928 109.134 61.0612 109.761V117.031C61.0476 117.153 60.9897 117.265 60.8985 117.346C60.8074 117.428 60.6895 117.473 60.5672 117.473C60.445 117.473 60.327 117.428 60.2359 117.346C60.1448 117.265 60.0869 117.153 60.0732 117.031V99.3534C60.0663 99.0327 59.9963 98.7165 59.8671 98.4229C59.738 98.1292 59.5523 97.8639 59.3206 97.6421C59.089 97.4202 58.8159 97.2462 58.517 97.1299C58.218 97.0135 57.8991 96.9573 57.5784 96.9642C57.2577 96.9711 56.9416 97.0412 56.6479 97.1703C56.3543 97.2994 56.089 97.4851 55.8672 97.7168C55.6453 97.9484 55.4712 98.2215 55.3549 98.5205C55.2386 98.8194 55.1823 99.1383 55.1893 99.459V123.015C55.188 123.111 55.1591 123.205 55.1059 123.284C55.0528 123.364 54.9777 123.427 54.8897 123.465C54.8017 123.503 54.7045 123.515 54.6099 123.499C54.5153 123.483 54.4274 123.44 54.3566 123.376L46.9002 116.255C46.3727 115.755 45.6867 115.456 44.9615 115.41C44.4265 115.417 43.9123 115.618 43.5137 115.975C43.1983 116.194 42.9339 116.478 42.7387 116.808C42.5435 117.138 42.4221 117.507 42.3828 117.889C42.3916 118.52 42.6276 119.127 43.0477 119.598L49.5969 127.278L49.6466 127.34C50.3246 128.684 50.8458 130.102 51.2001 131.565C51.7779 133.529 52.3807 135.567 53.2568 136.766C55.0898 139.289 55.2763 139.786 55.7423 141.476V141.526C55.8231 141.805 55.9101 142.147 56.0219 142.495C56.2868 143.448 56.439 144.428 56.4755 145.416C56.475 145.738 56.5548 146.056 56.7078 146.34C56.8607 146.625 57.082 146.866 57.3516 147.044C58.4328 147.814 60.9804 149.113 65.9017 149.113C70.4066 149.113 73.1034 148.143 74.6009 147.336C74.9509 147.165 75.2406 146.891 75.4315 146.551C75.6224 146.212 75.7054 145.822 75.6696 145.434C75.5331 144.311 75.4915 143.178 75.5454 142.048C75.7023 139.152 76.2136 136.287 77.0677 133.516C77.4215 132.269 77.6054 130.979 77.6145 129.682V113.564C77.6297 113.234 77.5745 112.905 77.4525 112.598C77.3306 112.292 77.1446 112.014 76.9071 111.785C76.6696 111.556 76.386 111.38 76.0751 111.269C75.7642 111.158 75.4332 111.114 75.1042 111.141Z" fill="white" stroke="white" stroke-miterlimit="10"/>
<path d="M53.5551 109.923V99.459C53.5329 98.3763 53.9417 97.329 54.6915 96.5477C55.4414 95.7664 56.4709 95.3149 57.5537 95.2927C58.6364 95.2704 59.6836 95.6792 60.4649 96.4291C61.2462 97.179 61.6977 98.2085 61.7199 99.2912V106.07C62.4722 105.704 63.319 105.579 64.1451 105.711C64.9712 105.843 65.7365 106.227 66.3367 106.81C68.0245 104.951 69.0714 102.6 69.3236 100.102C69.5757 97.6037 69.0198 95.0907 67.7376 92.9321C66.4553 90.7736 64.5143 89.0833 62.2 88.1098C59.8857 87.1363 57.3202 86.931 54.8805 87.524C52.4408 88.117 50.2558 89.4771 48.6465 91.4043C47.0373 93.3315 46.0888 95.7241 45.9404 98.2304C45.7921 100.737 46.4517 103.225 47.8224 105.328C49.1931 107.432 51.2024 109.04 53.5551 109.917V109.923Z" fill="white"/>
<path d="M8.69706 186.341V187.923H6.09305V196.113H4.13305V187.923H1.52905V186.341H8.69706ZM9.62313 192.207C9.62313 191.423 9.77713 190.727 10.0851 190.121C10.4025 189.514 10.8271 189.047 11.3591 188.721C11.9005 188.394 12.5025 188.231 13.1651 188.231C13.7438 188.231 14.2478 188.347 14.6771 188.581C15.1158 188.814 15.4658 189.108 15.7271 189.463V188.357H17.7011V196.113H15.7271V194.979C15.4751 195.343 15.1251 195.646 14.6771 195.889C14.2385 196.122 13.7298 196.239 13.1511 196.239C12.4978 196.239 11.9005 196.071 11.3591 195.735C10.8271 195.399 10.4025 194.927 10.0851 194.321C9.77713 193.705 9.62313 193 9.62313 192.207ZM15.7271 192.235C15.7271 191.759 15.6338 191.353 15.4471 191.017C15.2605 190.671 15.0085 190.41 14.6911 190.233C14.3738 190.046 14.0331 189.953 13.6691 189.953C13.3051 189.953 12.9691 190.041 12.6611 190.219C12.3531 190.396 12.1011 190.657 11.9051 191.003C11.7185 191.339 11.6251 191.74 11.6251 192.207C11.6251 192.673 11.7185 193.084 11.9051 193.439C12.1011 193.784 12.3531 194.05 12.6611 194.237C12.9785 194.423 13.3145 194.517 13.6691 194.517C14.0331 194.517 14.3738 194.428 14.6911 194.251C15.0085 194.064 15.2605 193.803 15.4471 193.467C15.6338 193.121 15.7271 192.711 15.7271 192.235ZM21.5754 189.477C21.8274 189.122 22.1727 188.828 22.6114 188.595C23.0594 188.352 23.5681 188.231 24.1374 188.231C24.8001 188.231 25.3974 188.394 25.9294 188.721C26.4707 189.047 26.8954 189.514 27.2034 190.121C27.5207 190.718 27.6794 191.413 27.6794 192.207C27.6794 193 27.5207 193.705 27.2034 194.321C26.8954 194.927 26.4707 195.399 25.9294 195.735C25.3974 196.071 24.8001 196.239 24.1374 196.239C23.5681 196.239 23.0641 196.122 22.6254 195.889C22.1961 195.655 21.8461 195.361 21.5754 195.007V199.809H19.6154V188.357H21.5754V189.477ZM25.6774 192.207C25.6774 191.74 25.5794 191.339 25.3834 191.003C25.1967 190.657 24.9447 190.396 24.6274 190.219C24.3194 190.041 23.9834 189.953 23.6194 189.953C23.2647 189.953 22.9287 190.046 22.6114 190.233C22.3034 190.41 22.0514 190.671 21.8554 191.017C21.6687 191.362 21.5754 191.768 21.5754 192.235C21.5754 192.701 21.6687 193.107 21.8554 193.453C22.0514 193.798 22.3034 194.064 22.6114 194.251C22.9287 194.428 23.2647 194.517 23.6194 194.517C23.9834 194.517 24.3194 194.423 24.6274 194.237C24.9447 194.05 25.1967 193.784 25.3834 193.439C25.5794 193.093 25.6774 192.683 25.6774 192.207ZM35.8836 196.239C35.137 196.239 34.465 196.075 33.8676 195.749C33.2703 195.413 32.799 194.941 32.4536 194.335C32.1176 193.728 31.9496 193.028 31.9496 192.235C31.9496 191.441 32.1223 190.741 32.4676 190.135C32.8223 189.528 33.303 189.061 33.9096 188.735C34.5163 188.399 35.193 188.231 35.9396 188.231C36.6863 188.231 37.363 188.399 37.9696 188.735C38.5763 189.061 39.0523 189.528 39.3976 190.135C39.7523 190.741 39.9296 191.441 39.9296 192.235C39.9296 193.028 39.7476 193.728 39.3836 194.335C39.029 194.941 38.5436 195.413 37.9276 195.749C37.321 196.075 36.6396 196.239 35.8836 196.239ZM35.8836 194.531C36.2383 194.531 36.5696 194.447 36.8776 194.279C37.195 194.101 37.447 193.84 37.6336 193.495C37.8203 193.149 37.9136 192.729 37.9136 192.235C37.9136 191.497 37.7176 190.933 37.3256 190.541C36.943 190.139 36.4716 189.939 35.9116 189.939C35.3516 189.939 34.8803 190.139 34.4976 190.541C34.1243 190.933 33.9376 191.497 33.9376 192.235C33.9376 192.972 34.1196 193.541 34.4836 193.943C34.857 194.335 35.3236 194.531 35.8836 194.531ZM45.6654 188.245C46.5894 188.245 47.336 188.539 47.9054 189.127C48.4747 189.705 48.7594 190.517 48.7594 191.563V196.113H46.7994V191.829C46.7994 191.213 46.6454 190.741 46.3374 190.415C46.0294 190.079 45.6094 189.911 45.0774 189.911C44.536 189.911 44.1067 190.079 43.7894 190.415C43.4814 190.741 43.3274 191.213 43.3274 191.829V196.113H41.3674V188.357H43.3274V189.323C43.5887 188.987 43.92 188.725 44.3214 188.539C44.732 188.343 45.18 188.245 45.6654 188.245ZM59.5771 189.967V193.719C59.5771 193.98 59.6378 194.171 59.7591 194.293C59.8898 194.405 60.1044 194.461 60.4031 194.461H61.3131V196.113H60.0811C58.4291 196.113 57.6031 195.31 57.6031 193.705V189.967H56.6791V188.357H57.6031V186.439H59.5771V188.357H61.3131V189.967H59.5771ZM67.0908 188.245C67.6788 188.245 68.2015 188.375 68.6588 188.637C69.1162 188.889 69.4708 189.267 69.7228 189.771C69.9842 190.265 70.1148 190.863 70.1148 191.563V196.113H68.1548V191.829C68.1548 191.213 68.0008 190.741 67.6928 190.415C67.3848 190.079 66.9648 189.911 66.4328 189.911C65.8915 189.911 65.4622 190.079 65.1448 190.415C64.8368 190.741 64.6828 191.213 64.6828 191.829V196.113H62.7228V185.753H64.6828V189.323C64.9348 188.987 65.2708 188.725 65.6908 188.539C66.1108 188.343 66.5775 188.245 67.0908 188.245ZM79.1887 192.067C79.1887 192.347 79.17 192.599 79.1327 192.823H73.4627C73.5094 193.383 73.7054 193.821 74.0507 194.139C74.396 194.456 74.8207 194.615 75.3247 194.615C76.0527 194.615 76.5707 194.302 76.8787 193.677H78.9927C78.7687 194.423 78.3394 195.039 77.7047 195.525C77.07 196.001 76.2907 196.239 75.3667 196.239C74.62 196.239 73.948 196.075 73.3507 195.749C72.7627 195.413 72.3007 194.941 71.9647 194.335C71.638 193.728 71.4747 193.028 71.4747 192.235C71.4747 191.432 71.638 190.727 71.9647 190.121C72.2914 189.514 72.7487 189.047 73.3367 188.721C73.9247 188.394 74.6014 188.231 75.3667 188.231C76.104 188.231 76.762 188.389 77.3407 188.707C77.9287 189.024 78.3814 189.477 78.6987 190.065C79.0254 190.643 79.1887 191.311 79.1887 192.067ZM77.1587 191.507C77.1494 191.003 76.9674 190.601 76.6127 190.303C76.258 189.995 75.824 189.841 75.3107 189.841C74.8254 189.841 74.4147 189.99 74.0787 190.289C73.752 190.578 73.5514 190.984 73.4767 191.507H77.1587ZM85.9153 189.561C86.1673 189.15 86.4939 188.828 86.8953 188.595C87.3059 188.361 87.7726 188.245 88.2953 188.245V190.303H87.7773C87.1613 190.303 86.6946 190.447 86.3773 190.737C86.0693 191.026 85.9153 191.53 85.9153 192.249V196.113H83.9553V188.357H85.9153V189.561ZM90.6094 187.433C90.2641 187.433 89.9747 187.325 89.7414 187.111C89.5174 186.887 89.4054 186.611 89.4054 186.285C89.4054 185.958 89.5174 185.687 89.7414 185.473C89.9747 185.249 90.2641 185.137 90.6094 185.137C90.9547 185.137 91.2394 185.249 91.4634 185.473C91.6967 185.687 91.8134 185.958 91.8134 186.285C91.8134 186.611 91.6967 186.887 91.4634 187.111C91.2394 187.325 90.9547 187.433 90.6094 187.433ZM91.5754 188.357V196.113H89.6154V188.357H91.5754ZM97.8099 188.245C98.7339 188.245 99.4806 188.539 100.05 189.127C100.619 189.705 100.904 190.517 100.904 191.563V196.113H98.9439V191.829C98.9439 191.213 98.7899 190.741 98.4819 190.415C98.1739 190.079 97.7539 189.911 97.2219 189.911C96.6806 189.911 96.2512 190.079 95.9339 190.415C95.6259 190.741 95.4719 191.213 95.4719 191.829V196.113H93.5119V188.357H95.4719V189.323C95.7332 188.987 96.0646 188.725 96.4659 188.539C96.8766 188.343 97.3246 188.245 97.8099 188.245ZM105.806 188.231C106.384 188.231 106.893 188.347 107.332 188.581C107.77 188.805 108.116 189.099 108.368 189.463V188.357H110.342V196.169C110.342 196.887 110.197 197.527 109.908 198.087C109.618 198.656 109.184 199.104 108.606 199.431C108.027 199.767 107.327 199.935 106.506 199.935C105.404 199.935 104.499 199.678 103.79 199.165C103.09 198.651 102.693 197.951 102.6 197.065H104.546C104.648 197.419 104.868 197.699 105.204 197.905C105.549 198.119 105.964 198.227 106.45 198.227C107.019 198.227 107.481 198.054 107.836 197.709C108.19 197.373 108.368 196.859 108.368 196.169V194.965C108.116 195.329 107.766 195.632 107.318 195.875C106.879 196.117 106.375 196.239 105.806 196.239C105.152 196.239 104.555 196.071 104.014 195.735C103.472 195.399 103.043 194.927 102.726 194.321C102.418 193.705 102.264 193 102.264 192.207C102.264 191.423 102.418 190.727 102.726 190.121C103.043 189.514 103.468 189.047 104 188.721C104.541 188.394 105.143 188.231 105.806 188.231ZM108.368 192.235C108.368 191.759 108.274 191.353 108.088 191.017C107.901 190.671 107.649 190.41 107.332 190.233C107.014 190.046 106.674 189.953 106.31 189.953C105.946 189.953 105.61 190.041 105.302 190.219C104.994 190.396 104.742 190.657 104.546 191.003C104.359 191.339 104.266 191.74 104.266 192.207C104.266 192.673 104.359 193.084 104.546 193.439C104.742 193.784 104.994 194.05 105.302 194.237C105.619 194.423 105.955 194.517 106.31 194.517C106.674 194.517 107.014 194.428 107.332 194.251C107.649 194.064 107.901 193.803 108.088 193.467C108.274 193.121 108.368 192.711 108.368 192.235ZM115.224 196.239C114.589 196.239 114.02 196.127 113.516 195.903C113.012 195.669 112.611 195.357 112.312 194.965C112.023 194.573 111.864 194.139 111.836 193.663H113.81C113.847 193.961 113.992 194.209 114.244 194.405C114.505 194.601 114.827 194.699 115.21 194.699C115.583 194.699 115.873 194.624 116.078 194.475C116.293 194.325 116.4 194.134 116.4 193.901C116.4 193.649 116.269 193.462 116.008 193.341C115.756 193.21 115.35 193.07 114.79 192.921C114.211 192.781 113.735 192.636 113.362 192.487C112.998 192.337 112.681 192.109 112.41 191.801C112.149 191.493 112.018 191.077 112.018 190.555C112.018 190.125 112.139 189.733 112.382 189.379C112.634 189.024 112.989 188.744 113.446 188.539C113.913 188.333 114.459 188.231 115.084 188.231C116.008 188.231 116.745 188.464 117.296 188.931C117.847 189.388 118.15 190.009 118.206 190.793H116.33C116.302 190.485 116.171 190.242 115.938 190.065C115.714 189.878 115.411 189.785 115.028 189.785C114.673 189.785 114.398 189.85 114.202 189.981C114.015 190.111 113.922 190.293 113.922 190.527C113.922 190.788 114.053 190.989 114.314 191.129C114.575 191.259 114.981 191.395 115.532 191.535C116.092 191.675 116.554 191.819 116.918 191.969C117.282 192.118 117.595 192.351 117.856 192.669C118.127 192.977 118.267 193.387 118.276 193.901C118.276 194.349 118.15 194.75 117.898 195.105C117.655 195.459 117.301 195.739 116.834 195.945C116.377 196.141 115.84 196.239 115.224 196.239ZM35.5898 210.967V214.719C35.5898 214.98 35.6505 215.171 35.7718 215.293C35.9025 215.405 36.1171 215.461 36.4158 215.461H37.3258V217.113H36.0938C34.4418 217.113 33.6158 216.31 33.6158 214.705V210.967H32.6918V209.357H33.6158V207.439H35.5898V209.357H37.3258V210.967H35.5898ZM42.1795 217.239C41.4329 217.239 40.7609 217.075 40.1635 216.749C39.5662 216.413 39.0949 215.941 38.7495 215.335C38.4135 214.728 38.2455 214.028 38.2455 213.235C38.2455 212.441 38.4182 211.741 38.7635 211.135C39.1182 210.528 39.5989 210.061 40.2055 209.735C40.8122 209.399 41.4889 209.231 42.2355 209.231C42.9822 209.231 43.6589 209.399 44.2655 209.735C44.8722 210.061 45.3482 210.528 45.6935 211.135C46.0482 211.741 46.2255 212.441 46.2255 213.235C46.2255 214.028 46.0435 214.728 45.6795 215.335C45.3249 215.941 44.8395 216.413 44.2235 216.749C43.6169 217.075 42.9355 217.239 42.1795 217.239ZM42.1795 215.531C42.5342 215.531 42.8655 215.447 43.1735 215.279C43.4909 215.101 43.7429 214.84 43.9295 214.495C44.1162 214.149 44.2095 213.729 44.2095 213.235C44.2095 212.497 44.0135 211.933 43.6215 211.541C43.2389 211.139 42.7675 210.939 42.2075 210.939C41.6475 210.939 41.1762 211.139 40.7935 211.541C40.4202 211.933 40.2335 212.497 40.2335 213.235C40.2335 213.972 40.4155 214.541 40.7795 214.943C41.1529 215.335 41.6195 215.531 42.1795 215.531ZM53.2812 210.967V214.719C53.2812 214.98 53.3419 215.171 53.4632 215.293C53.5939 215.405 53.8085 215.461 54.1072 215.461H55.0172V217.113H53.7852C52.1332 217.113 51.3072 216.31 51.3072 214.705V210.967H50.3832V209.357H51.3072V207.439H53.2812V209.357H55.0172V210.967H53.2812ZM60.7949 209.245C61.3829 209.245 61.9056 209.375 62.3629 209.637C62.8203 209.889 63.1749 210.267 63.4269 210.771C63.6883 211.265 63.8189 211.863 63.8189 212.563V217.113H61.8589V212.829C61.8589 212.213 61.7049 211.741 61.3969 211.415C61.0889 211.079 60.6689 210.911 60.1369 210.911C59.5956 210.911 59.1663 211.079 58.8489 211.415C58.5409 211.741 58.3869 212.213 58.3869 212.829V217.113H56.4269V206.753H58.3869V210.323C58.6389 209.987 58.9749 209.725 59.3949 209.539C59.8149 209.343 60.2816 209.245 60.7949 209.245ZM72.8928 213.067C72.8928 213.347 72.8741 213.599 72.8368 213.823H67.1668C67.2135 214.383 67.4095 214.821 67.7548 215.139C68.1001 215.456 68.5248 215.615 69.0288 215.615C69.7568 215.615 70.2748 215.302 70.5828 214.677H72.6968C72.4728 215.423 72.0435 216.039 71.4088 216.525C70.7741 217.001 69.9948 217.239 69.0708 217.239C68.3241 217.239 67.6521 217.075 67.0548 216.749C66.4668 216.413 66.0048 215.941 65.6688 215.335C65.3421 214.728 65.1788 214.028 65.1788 213.235C65.1788 212.432 65.3421 211.727 65.6688 211.121C65.9955 210.514 66.4528 210.047 67.0408 209.721C67.6288 209.394 68.3055 209.231 69.0708 209.231C69.8081 209.231 70.4661 209.389 71.0448 209.707C71.6328 210.024 72.0855 210.477 72.4028 211.065C72.7295 211.643 72.8928 212.311 72.8928 213.067ZM70.8628 212.507C70.8535 212.003 70.6715 211.601 70.3168 211.303C69.9621 210.995 69.5281 210.841 69.0148 210.841C68.5295 210.841 68.1188 210.99 67.7828 211.289C67.4561 211.578 67.2555 211.984 67.1808 212.507H70.8628ZM76.2834 210.561C76.5354 210.15 76.8621 209.828 77.2634 209.595C77.6741 209.361 78.1408 209.245 78.6634 209.245V211.303H78.1454C77.5294 211.303 77.0628 211.447 76.7454 211.737C76.4374 212.026 76.2834 212.53 76.2834 213.249V217.113H74.3234V209.357H76.2834V210.561ZM87.1936 213.067C87.1936 213.347 87.1749 213.599 87.1376 213.823H81.4676C81.5142 214.383 81.7102 214.821 82.0556 215.139C82.4009 215.456 82.8256 215.615 83.3296 215.615C84.0576 215.615 84.5756 215.302 84.8836 214.677H86.9976C86.7736 215.423 86.3442 216.039 85.7096 216.525C85.0749 217.001 84.2956 217.239 83.3716 217.239C82.6249 217.239 81.9529 217.075 81.3556 216.749C80.7676 216.413 80.3056 215.941 79.9696 215.335C79.6429 214.728 79.4796 214.028 79.4796 213.235C79.4796 212.432 79.6429 211.727 79.9696 211.121C80.2962 210.514 80.7536 210.047 81.3416 209.721C81.9296 209.394 82.6062 209.231 83.3716 209.231C84.1089 209.231 84.7669 209.389 85.3456 209.707C85.9336 210.024 86.3862 210.477 86.7036 211.065C87.0302 211.643 87.1936 212.311 87.1936 213.067ZM85.1636 212.507C85.1542 212.003 84.9722 211.601 84.6176 211.303C84.2629 210.995 83.8289 210.841 83.3156 210.841C82.8302 210.841 82.4196 210.99 82.0836 211.289C81.7569 211.578 81.5562 211.984 81.4816 212.507H85.1636Z" fill="white"/>
<path d="M67.4818 270.046C67.4806 270.119 67.4543 270.189 67.4073 270.245L59.7831 279.975C59.7532 280.018 59.7137 280.052 59.6677 280.076C59.6218 280.1 59.5708 280.112 59.519 280.112C59.4672 280.112 59.4162 280.1 59.3702 280.076C59.3243 280.052 59.2847 280.018 59.2549 279.975L52.5752 269.549C52.5438 269.496 52.5267 269.436 52.5255 269.375C52.5242 269.318 52.5393 269.262 52.569 269.213C52.5983 269.162 52.641 269.12 52.6925 269.092C52.744 269.063 52.8022 269.049 52.861 269.052L55.7255 269.182L59.4165 247.347C59.4357 247.28 59.4765 247.22 59.5326 247.178C59.5886 247.136 59.6569 247.113 59.7271 247.113C59.7974 247.113 59.8657 247.136 59.9217 247.178C59.9778 247.22 60.0185 247.28 60.0378 247.347L63.766 269.561L67.1339 269.723C67.1931 269.725 67.2505 269.744 67.2998 269.777C67.3491 269.81 67.3885 269.855 67.4135 269.909C67.4465 269.949 67.4699 269.996 67.4818 270.046Z" fill="url(#paint1_linear_397_1701)"/>
<path d="M67.5 273.973L65.9776 275.88C70.5074 276.632 73.6267 278.211 73.6267 280.031C73.6267 282.579 67.5248 284.648 60 284.648C52.4752 284.648 46.3734 282.579 46.3734 280.031C46.3734 278.217 49.4802 276.651 53.9603 275.893L52.6368 273.973C45.5842 274.955 40.6133 277.303 40.6133 280.05C40.6133 283.679 49.3125 286.618 60 286.618C70.6876 286.618 79.3868 283.679 79.3868 280.05C79.3868 277.328 74.4842 274.992 67.5 273.973Z" fill="white"/>
<path opacity="0.5" d="M75.1244 325.23C74.8049 325.21 74.485 325.261 74.1874 325.379C73.8899 325.497 73.6221 325.68 73.4032 325.913C73.0067 326.404 72.8034 327.023 72.8316 327.653V331.139C72.8394 331.208 72.8324 331.279 72.8112 331.345C72.7899 331.412 72.7548 331.474 72.7082 331.526C72.6616 331.578 72.6044 331.62 72.5406 331.648C72.4767 331.677 72.4075 331.691 72.3376 331.691C72.2676 331.691 72.1984 331.677 72.1346 331.648C72.0707 331.62 72.0136 331.578 71.967 331.526C71.9204 331.474 71.8853 331.412 71.864 331.345C71.8427 331.279 71.8358 331.208 71.8436 331.139V325.689C71.8436 325.042 71.5863 324.421 71.1283 323.963C70.6704 323.505 70.0493 323.247 69.4016 323.247C68.7539 323.247 68.1328 323.505 67.6749 323.963C67.2169 324.421 66.9596 325.042 66.9596 325.689V331.139C66.9674 331.208 66.9605 331.279 66.9392 331.345C66.918 331.412 66.8829 331.474 66.8362 331.526C66.7896 331.578 66.7325 331.62 66.6686 331.648C66.6048 331.677 66.5356 331.691 66.4656 331.691C66.3957 331.691 66.3265 331.677 66.2626 331.648C66.1988 331.62 66.1417 331.578 66.095 331.526C66.0484 331.474 66.0133 331.412 65.992 331.345C65.9708 331.279 65.9638 331.208 65.9716 331.139V323.832C65.94 323.204 65.6686 322.613 65.2135 322.181C64.7585 321.748 64.1545 321.507 63.5265 321.507C62.8986 321.507 62.2946 321.748 61.8396 322.181C61.3845 322.613 61.1131 323.204 61.0815 323.832V331.139C61.0824 331.204 61.0702 331.268 61.0456 331.328C61.0211 331.387 60.9846 331.442 60.9385 331.487C60.8702 331.558 60.7821 331.607 60.6856 331.627C60.589 331.648 60.4886 331.639 60.3974 331.601C60.3062 331.563 60.2284 331.499 60.1742 331.417C60.12 331.334 60.0918 331.238 60.0935 331.139V313.436C60.0693 312.806 59.8007 312.211 59.3449 311.776C58.889 311.341 58.2816 311.101 57.6515 311.106C57.0038 311.106 56.3827 311.363 55.9247 311.821C55.4668 312.279 55.2095 312.9 55.2095 313.548V337.104C55.2099 337.201 55.1817 337.295 55.1286 337.376C55.0754 337.457 54.9997 337.52 54.9108 337.558C54.8219 337.595 54.7238 337.606 54.6288 337.588C54.5339 337.571 54.4462 337.526 54.3769 337.458L46.9204 330.344C46.3929 329.844 45.7069 329.545 44.9817 329.498C44.4406 329.511 43.9221 329.719 43.5215 330.083C43.2067 330.302 42.9427 330.586 42.7476 330.916C42.5525 331.247 42.4307 331.615 42.3906 331.996C42.3971 332.628 42.6335 333.235 43.0555 333.705L49.6047 341.385L49.6544 341.454C50.3335 342.795 50.8548 344.211 51.2079 345.673C51.7857 347.643 52.3885 349.681 53.2646 350.88C55.0977 353.403 55.2841 353.893 55.7501 355.584V355.64C55.8309 355.919 55.9179 356.261 56.0297 356.603C56.2941 357.555 56.4463 358.535 56.4833 359.523C56.489 359.836 56.5706 360.144 56.721 360.419C56.8714 360.693 57.0862 360.928 57.347 361.101C58.4282 361.872 60.9758 363.171 65.8971 363.171C70.402 363.171 73.0988 362.207 74.5963 361.393C74.9458 361.223 75.2352 360.951 75.4262 360.612C75.6171 360.274 75.7004 359.885 75.665 359.498C75.5286 358.375 75.487 357.242 75.5407 356.112C75.7078 353.224 76.2274 350.367 77.088 347.605C77.4413 346.358 77.6252 345.068 77.6348 343.771V327.653C77.65 327.323 77.5948 326.994 77.4728 326.687C77.3508 326.38 77.1649 326.103 76.9273 325.874C76.6898 325.645 76.4062 325.469 76.0953 325.358C75.7844 325.246 75.4535 325.203 75.1244 325.23Z" fill="white" stroke="white" stroke-miterlimit="10"/>
<path d="M53.5747 324.012V313.548C53.5524 312.465 53.9612 311.418 54.7111 310.637C55.4609 309.855 56.4905 309.404 57.5732 309.382C58.6559 309.359 59.7031 309.768 60.4844 310.518C61.2658 311.268 61.7172 312.297 61.7395 313.38V320.159C62.2938 319.885 62.9042 319.742 63.5228 319.743C64.5813 319.747 65.597 320.161 66.3563 320.899C68.044 319.04 69.0909 316.689 69.3431 314.191C69.5953 311.693 69.0393 309.18 67.7571 307.021C66.4748 304.862 64.5339 303.172 62.2196 302.199C59.9053 301.225 57.3397 301.02 54.9 301.613C52.4603 302.206 50.2753 303.566 48.666 305.493C47.0568 307.42 46.1083 309.813 45.96 312.319C45.8116 314.826 46.4713 317.313 47.8419 319.417C49.2126 321.521 51.222 323.129 53.5747 324.006V324.012Z" fill="white"/>
<defs>
<linearGradient id="paint0_linear_397_1701" x1="42.8057" y1="73.4671" x2="77.1551" y2="73.4671" gradientUnits="userSpaceOnUse">
<stop offset="0.4" stop-color="white"/>
<stop offset="0.9" stop-color="white" stop-opacity="0"/>
</linearGradient>
<linearGradient id="paint1_linear_397_1701" x1="59.752" y1="280.491" x2="60.5411" y2="246.633" gradientUnits="userSpaceOnUse">
<stop offset="0.4" stop-color="white"/>
<stop offset="0.59" stop-color="white" stop-opacity="0.49"/>
<stop offset="0.74" stop-color="white" stop-opacity="0.14"/>
<stop offset="0.8" stop-color="white" stop-opacity="0"/>
</linearGradient>
</defs>
</svg>
