<svg width="215" height="19" viewBox="0 0 215 19" fill="none" xmlns="http://www.w3.org/2000/svg">
<path d="M1.16406 15V3.54688H4.875C6.28125 3.54688 7.19792 3.60417 7.625 3.71875C8.28125 3.89062 8.83073 4.26562 9.27344 4.84375C9.71615 5.41667 9.9375 6.15885 9.9375 7.07031C9.9375 7.77344 9.8099 8.36458 9.55469 8.84375C9.29948 9.32292 8.97396 9.70052 8.57812 9.97656C8.1875 10.2474 7.78906 10.4271 7.38281 10.5156C6.83073 10.625 6.03125 10.6797 4.98438 10.6797H3.47656V15H1.16406ZM3.47656 5.48438V8.73438H4.74219C5.65365 8.73438 6.26302 8.67448 6.57031 8.55469C6.8776 8.4349 7.11719 8.2474 7.28906 7.99219C7.46615 7.73698 7.55469 7.4401 7.55469 7.10156C7.55469 6.6849 7.43229 6.34115 7.1875 6.07031C6.94271 5.79948 6.63281 5.63021 6.25781 5.5625C5.98177 5.51042 5.42708 5.48438 4.59375 5.48438H3.47656ZM11.3125 10.7344C11.3125 10.0052 11.4922 9.29948 11.8516 8.61719C12.2109 7.9349 12.7188 7.41406 13.375 7.05469C14.0365 6.69531 14.7734 6.51562 15.5859 6.51562C16.8411 6.51562 17.8698 6.92448 18.6719 7.74219C19.474 8.55469 19.875 9.58333 19.875 10.8281C19.875 12.0833 19.4688 13.125 18.6562 13.9531C17.849 14.776 16.8307 15.1875 15.6016 15.1875C14.8411 15.1875 14.1146 15.0156 13.4219 14.6719C12.7344 14.3281 12.2109 13.8255 11.8516 13.1641C11.4922 12.4974 11.3125 11.6875 11.3125 10.7344ZM13.5625 10.8516C13.5625 11.6745 13.7578 12.3047 14.1484 12.7422C14.5391 13.1797 15.0208 13.3984 15.5938 13.3984C16.1667 13.3984 16.6458 13.1797 17.0312 12.7422C17.4219 12.3047 17.6172 11.6693 17.6172 10.8359C17.6172 10.0234 17.4219 9.39844 17.0312 8.96094C16.6458 8.52344 16.1667 8.30469 15.5938 8.30469C15.0208 8.30469 14.5391 8.52344 14.1484 8.96094C13.7578 9.39844 13.5625 10.0286 13.5625 10.8516ZM23.1484 15L20.5234 6.70312H22.6562L24.2109 12.1406L25.6406 6.70312H27.7578L29.1406 12.1406L30.7266 6.70312H32.8906L30.2266 15H28.1172L26.6875 9.66406L25.2812 15H23.1484ZM38.8594 12.3594L41.0469 12.7266C40.7656 13.5286 40.3203 14.1406 39.7109 14.5625C39.1068 14.9792 38.349 15.1875 37.4375 15.1875C35.9948 15.1875 34.9271 14.7161 34.2344 13.7734C33.6875 13.0182 33.4141 12.0651 33.4141 10.9141C33.4141 9.53906 33.7734 8.46354 34.4922 7.6875C35.2109 6.90625 36.1198 6.51562 37.2188 6.51562C38.4531 6.51562 39.4271 6.92448 40.1406 7.74219C40.8542 8.55469 41.1953 9.80208 41.1641 11.4844H35.6641C35.6797 12.1354 35.8568 12.6432 36.1953 13.0078C36.5339 13.3672 36.9557 13.5469 37.4609 13.5469C37.8047 13.5469 38.0938 13.4531 38.3281 13.2656C38.5625 13.0781 38.7396 12.776 38.8594 12.3594ZM38.9844 10.1406C38.9688 9.50521 38.8047 9.02344 38.4922 8.69531C38.1797 8.36198 37.7995 8.19531 37.3516 8.19531C36.8724 8.19531 36.4766 8.36979 36.1641 8.71875C35.8516 9.06771 35.6979 9.54167 35.7031 10.1406H38.9844ZM45.0625 15H42.8672V6.70312H44.9062V7.88281C45.2552 7.32552 45.5677 6.95833 45.8438 6.78125C46.125 6.60417 46.4427 6.51562 46.7969 6.51562C47.2969 6.51562 47.7786 6.65365 48.2422 6.92969L47.5625 8.84375C47.1927 8.60417 46.849 8.48438 46.5312 8.48438C46.224 8.48438 45.9635 8.57031 45.75 8.74219C45.5365 8.90885 45.3672 9.21354 45.2422 9.65625C45.1224 10.099 45.0625 11.026 45.0625 12.4375V15ZM54 12.3594L56.1875 12.7266C55.9062 13.5286 55.4609 14.1406 54.8516 14.5625C54.2474 14.9792 53.4896 15.1875 52.5781 15.1875C51.1354 15.1875 50.0677 14.7161 49.375 13.7734C48.8281 13.0182 48.5547 12.0651 48.5547 10.9141C48.5547 9.53906 48.9141 8.46354 49.6328 7.6875C50.3516 6.90625 51.2604 6.51562 52.3594 6.51562C53.5938 6.51562 54.5677 6.92448 55.2812 7.74219C55.9948 8.55469 56.3359 9.80208 56.3047 11.4844H50.8047C50.8203 12.1354 50.9974 12.6432 51.3359 13.0078C51.6745 13.3672 52.0964 13.5469 52.6016 13.5469C52.9453 13.5469 53.2344 13.4531 53.4688 13.2656C53.7031 13.0781 53.8802 12.776 54 12.3594ZM54.125 10.1406C54.1094 9.50521 53.9453 9.02344 53.6328 8.69531C53.3203 8.36198 52.9401 8.19531 52.4922 8.19531C52.013 8.19531 51.6172 8.36979 51.3047 8.71875C50.9922 9.06771 50.8385 9.54167 50.8438 10.1406H54.125ZM65.7109 15H63.6719V13.7812C63.3333 14.2552 62.9323 14.6094 62.4688 14.8438C62.0104 15.0729 61.5469 15.1875 61.0781 15.1875C60.125 15.1875 59.3073 14.8047 58.625 14.0391C57.9479 13.2682 57.6094 12.1953 57.6094 10.8203C57.6094 9.41406 57.9401 8.34635 58.6016 7.61719C59.263 6.88281 60.099 6.51562 61.1094 6.51562C62.0365 6.51562 62.8385 6.90104 63.5156 7.67188V3.54688H65.7109V15ZM59.8516 10.6719C59.8516 11.5573 59.974 12.1979 60.2188 12.5938C60.5729 13.1667 61.0677 13.4531 61.7031 13.4531C62.2083 13.4531 62.638 13.2396 62.9922 12.8125C63.3464 12.3802 63.5234 11.737 63.5234 10.8828C63.5234 9.92969 63.3516 9.24479 63.0078 8.82812C62.6641 8.40625 62.224 8.19531 61.6875 8.19531C61.1667 8.19531 60.7292 8.40365 60.375 8.82031C60.026 9.23177 59.8516 9.84896 59.8516 10.6719ZM72.2422 15V3.54688H74.4375V7.67188C75.1146 6.90104 75.9167 6.51562 76.8438 6.51562C77.8542 6.51562 78.6901 6.88281 79.3516 7.61719C80.013 8.34635 80.3438 9.39583 80.3438 10.7656C80.3438 12.1823 80.0052 13.2734 79.3281 14.0391C78.6562 14.8047 77.8385 15.1875 76.875 15.1875C76.401 15.1875 75.9323 15.0703 75.4688 14.8359C75.0104 14.5964 74.6146 14.2448 74.2812 13.7812V15H72.2422ZM74.4219 10.6719C74.4219 11.5312 74.5573 12.1667 74.8281 12.5781C75.2083 13.1615 75.7135 13.4531 76.3438 13.4531C76.8281 13.4531 77.2396 13.2474 77.5781 12.8359C77.9219 12.4193 78.0938 11.7656 78.0938 10.875C78.0938 9.92708 77.9219 9.24479 77.5781 8.82812C77.2344 8.40625 76.7943 8.19531 76.2578 8.19531C75.7318 8.19531 75.2943 8.40104 74.9453 8.8125C74.5964 9.21875 74.4219 9.83854 74.4219 10.6719ZM81.0781 6.70312H83.4141L85.3984 12.5938L87.3359 6.70312H89.6094L86.6797 14.6875L86.1562 16.1328C85.9635 16.6172 85.7786 16.987 85.6016 17.2422C85.4297 17.4974 85.2292 17.7031 85 17.8594C84.776 18.0208 84.4974 18.1458 84.1641 18.2344C83.8359 18.3229 83.4635 18.3672 83.0469 18.3672C82.625 18.3672 82.2109 18.3229 81.8047 18.2344L81.6094 16.5156C81.9531 16.5833 82.263 16.6172 82.5391 16.6172C83.0495 16.6172 83.4271 16.4661 83.6719 16.1641C83.9167 15.8672 84.1042 15.487 84.2344 15.0234L81.0781 6.70312Z" fill="white"/>
<g clip-path="url(#clip0_409_1205)">
<path d="M100 2.39989V15.5999C100 16.1999 100.6 16.6999 101.2 16.5999C103.3 16.0999 105.4 15.7999 107.5 15.4999C108 15.3999 108.4 14.9999 108.4 14.4999V3.49989C108.4 2.99989 108 2.59989 107.5 2.49989C105.4 2.29989 103.3 1.89989 101.2 1.39989C100.6 1.29989 100 1.79989 100 2.39989Z" fill="url(#paint0_linear_409_1205)"/>
<path d="M127.1 1.39989C125 1.89989 122.9 2.19989 120.8 2.49989C120.3 2.59989 119.9 2.99989 119.9 3.49989V14.5999C119.9 15.0999 120.3 15.4999 120.8 15.5999C122.9 15.7999 125 16.1999 127.1 16.6999C127.7 16.7999 128.3 16.3999 128.3 15.6999V2.39989C128.3 1.79989 127.7 1.29989 127.1 1.39989Z" fill="url(#paint1_linear_409_1205)"/>
<path d="M109.3 3.69995V14.2C109.3 14.8 109.8 15.2 110.3 15.2C111.6 15.1 112.8 15.1 114 15.1C115.3 15.1 116.5 15.1 117.8 15.2C118.4 15.2 118.8 14.8 118.8 14.2V3.69995C118.8 3.09995 118.3 2.69995 117.8 2.69995C116.5 2.79995 115.2 2.79995 114 2.79995C112.8 2.79995 111.5 2.79995 110.3 2.69995C109.8 2.69995 109.3 3.19995 109.3 3.69995Z" fill="url(#paint2_linear_409_1205)"/>
<path d="M133.8 3.9C133.8 3.7 133.9 3.6 134 3.5C134.1 3.4 134.3 3.3 134.5 3.2L136.5 2.5H136.6H136.7C136.9 2.5 137.1 2.6 137.1 2.7C137.2 2.8 137.2 3 137.2 3.2V5.6H138.4C138.6 5.6 138.7 5.7 138.9 5.8C138.9 5.8 139 6 139 6.2V7.9C139 8.1 138.9 8.3 138.8 8.4C138.7 8.5 138.5 8.6 138.3 8.6H137.1V15.9C137.1 16.1 137 16.3 136.9 16.4C136.8 16.5 136.6 16.6 136.4 16.6H134.4C134 16.6 133.7 16.4 133.7 15.9V8.6H132.8C132.4 8.6 132.1 8.4 132.1 7.9V6.2C132.1 5.8 132.3 5.5 132.8 5.5H133.7L133.8 3.9Z" fill="white"/>
<path d="M140 11.0999C140 10.5999 140.1 10.0999 140.2 9.5999C140.3 9.0999 140.5 8.6999 140.8 8.1999C141 7.7999 141.3 7.3999 141.7 7.0999C142 6.6999 142.3 6.3999 142.8 6.1999C143.3 5.9999 143.7 5.7999 144.2 5.5999C144.7 5.4999 145.2 5.3999 145.7 5.3999C146.5 5.3999 147.2 5.4999 147.9 5.7999C148.6 6.0999 149.2 6.4999 149.7 6.9999C150.2 7.4999 150.6 8.0999 150.9 8.7999C151.2 9.4999 151.3 10.1999 151.3 10.9999C151.3 11.4999 151.2 11.9999 151.1 12.4999C151 12.9999 150.8 13.3999 150.5 13.8999C150.3 14.2999 150 14.6999 149.6 14.9999C149.3 15.2999 148.9 15.5999 148.5 15.8999C148.1 16.0999 147.6 16.2999 147.1 16.4999C146.6 16.5999 146.1 16.6999 145.6 16.6999C145.1 16.6999 144.6 16.5999 144.1 16.4999C143.6 16.3999 143.2 16.1999 142.7 15.8999C142.2 15.5999 141.9 15.3999 141.6 14.9999C141.3 14.6999 141 14.2999 140.7 13.8999C140.5 13.4999 140.3 12.9999 140.1 12.4999C140 12.0999 140 11.5999 140 11.0999ZM143.1 11.0999C143.1 11.4999 143.2 11.7999 143.3 12.1999C143.4 12.4999 143.6 12.7999 143.8 13.0999C144 13.2999 144.3 13.4999 144.6 13.6999C144.9 13.7999 145.3 13.8999 145.6 13.8999C146 13.8999 146.3 13.7999 146.6 13.6999C146.9 13.5999 147.2 13.3999 147.4 13.0999C147.6 12.8999 147.8 12.5999 147.9 12.1999C148 11.8999 148.1 11.4999 148.1 11.0999C148.1 10.6999 148 10.3999 147.9 9.9999C147.8 9.6999 147.6 9.3999 147.4 9.0999C147.2 8.7999 146.9 8.5999 146.6 8.4999C146.3 8.3999 146 8.2999 145.6 8.2999C145.2 8.2999 144.9 8.3999 144.6 8.4999C144.3 8.6999 144 8.8999 143.8 9.1999C143.6 9.4999 143.4 9.6999 143.3 10.0999C143.2 10.4999 143.1 10.6999 143.1 11.0999Z" fill="white"/>
<path d="M163.3 16.4C163.2 16.5 163.1 16.5 163.1 16.5C163 16.5 162.9 16.5 162.9 16.5H161.6C161.5 16.5 161.4 16.5 161.3 16.4C161.2 16.4 161.2 16.3 161.1 16.2C161 16.3 161 16.3 160.9 16.2C160.9 16.1 160.8 16 160.8 15.9L160.6 15.1C160.5 15.3 160.4 15.5 160.2 15.7C160 15.9 159.7 16.1 159.4 16.2C159.1 16.4 158.8 16.5 158.4 16.6C158 16.7 157.6 16.8 157.1 16.8C156.4 16.8 155.9 16.7 155.3 16.4C154.8 16.1 154.4 15.8 154 15.4C153.7 15 153.4 14.4 153.2 13.9C153 13.3 152.9 12.7 152.9 12V6.2C152.9 6 152.9 5.8 153 5.7C153.1 5.6 153.2 5.5 153.5 5.5H155.5C155.7 5.5 155.9 5.5 156 5.6C156.1 5.7 156.1 5.8 156.1 6.1V11.8C156.1 12 156.1 12.3 156.2 12.5C156.3 12.7 156.4 12.9 156.6 13.1C156.8 13.3 157 13.4 157.2 13.5C157.4 13.6 157.6 13.6 157.9 13.6C158.1 13.6 158.3 13.6 158.6 13.5C158.8 13.4 159.1 13.3 159.3 13.2C159.5 13.1 159.7 12.9 159.8 12.6C159.9 12.4 160 12.1 160 11.8V6.2C160 6.1 160 6 160.1 5.9C160.1 5.8 160.2 5.7 160.3 5.7C160.4 5.7 160.4 5.6 160.5 5.6C160.6 5.6 160.6 5.6 160.7 5.6H162.7C162.9 5.6 163.1 5.7 163.2 5.8C163.3 5.9 163.4 6.1 163.4 6.3V16C163.4 16.1 163.4 16.2 163.3 16.3C163.4 16.3 163.3 16.4 163.3 16.4Z" fill="white"/>
<path d="M165.6 6.19993C165.6 6.09993 165.6 5.99993 165.7 5.89993C165.7 5.79993 165.8 5.79993 165.9 5.69993L166 5.59993C166.1 5.59993 166.2 5.59993 166.2 5.59993H167.5C167.6 5.59993 167.8 5.59993 167.8 5.69993C167.9 5.79993 168 5.89993 168 5.99993C168.1 6.09993 168.1 6.29993 168.2 6.39993C168.2 6.59993 168.3 6.69993 168.4 6.89993C168.6 6.69993 168.7 6.49993 168.9 6.29993C169.1 6.09993 169.3 5.99993 169.5 5.79993C169.7 5.69993 169.9 5.49993 170.1 5.39993C170.3 5.29993 170.6 5.29993 170.9 5.29993C171.2 5.29993 171.5 5.29993 171.7 5.39993C171.9 5.39993 172.2 5.49993 172.4 5.59993C172.6 5.69993 172.8 5.79993 173.1 5.89993C173.3 5.99993 173.6 6.19993 173.8 6.39993C174 6.49993 174.2 6.69993 174.2 6.89993C174.2 6.99993 174.2 7.19993 174.1 7.29993L173.3 8.59993C173.1 8.79993 173 8.89993 172.7 8.89993C172.6 8.89993 172.5 8.89993 172.3 8.79993C172.1 8.59993 171.8 8.39993 171.5 8.29993C171.2 8.19993 170.9 8.09993 170.6 8.09993C170.4 8.09993 170.2 8.09993 170 8.19993C169.8 8.29993 169.7 8.39993 169.5 8.49993C169.4 8.59993 169.2 8.79993 169.1 8.89993C169 9.09993 168.9 9.19993 168.7 9.39993V15.6999C168.7 15.8999 168.6 16.0999 168.5 16.1999C168.4 16.2999 168.2 16.3999 168 16.3999H166C165.5 16.3999 165.3 16.1999 165.3 15.6999V6.19993H165.6Z" fill="white"/>
<path d="M175.6 1.89995C175.6 1.69995 175.7 1.49995 175.8 1.39995C175.8 1.29995 176 1.19995 176.2 1.19995H178.2C178.4 1.19995 178.6 1.29995 178.7 1.39995C178.8 1.49995 178.9 1.69995 178.9 1.89995V3.59995C178.9 3.69995 178.9 3.69995 178.9 3.79995C178.9 3.89995 178.8 3.99995 178.8 3.99995C178.7 4.09995 178.6 4.19995 178.5 4.19995C178.4 4.19995 178.3 4.29995 178.2 4.29995H176.2C175.8 4.29995 175.6 4.09995 175.6 3.59995V1.89995ZM175.6 6.29995C175.6 6.09995 175.7 5.99995 175.8 5.79995C175.9 5.69995 176.1 5.59995 176.3 5.59995H178.3C178.4 5.59995 178.4 5.59995 178.5 5.59995C178.6 5.59995 178.7 5.69995 178.7 5.69995C178.8 5.79995 178.8 5.79995 178.9 5.89995C178.9 5.99995 179 6.09995 179 6.19995V15.9C179 16.1 178.9 16.3 178.8 16.4C178.7 16.5 178.5 16.6 178.3 16.6H176.3C175.9 16.6 175.7 16.4 175.7 15.9V6.29995H175.6Z" fill="white"/>
<path d="M182.6 13.1999C182.8 13.3999 182.9 13.4999 183.1 13.5999C183.3 13.6999 183.5 13.7999 183.6 13.8999C183.8 13.9999 183.9 13.9999 184 13.9999C184.1 13.9999 184.2 13.9999 184.3 13.9999C184.4 13.9999 184.5 13.9999 184.7 13.9999C184.9 13.9999 185 13.9999 185.2 13.8999C185.4 13.7999 185.5 13.7999 185.6 13.6999C185.7 13.5999 185.8 13.4999 185.8 13.2999C185.8 13.0999 185.8 12.9999 185.7 12.8999C185.6 12.7999 185.5 12.6999 185.4 12.6999C185.3 12.5999 185.1 12.5999 185 12.4999C184.8 12.3999 184.6 12.3999 184.4 12.2999C183.7 12.0999 183.1 11.8999 182.7 11.5999C182.2 11.2999 181.9 10.9999 181.6 10.6999C181.3 10.3999 181.2 9.99993 181 9.69993C180.9 9.29993 180.8 8.89993 180.8 8.49993C180.8 7.99993 180.9 7.59993 181.1 7.19993C181.3 6.79993 181.6 6.49993 181.9 6.19993C182.3 5.89993 182.7 5.69993 183.2 5.49993C183.7 5.29993 184.2 5.29993 184.8 5.29993C185.2 5.29993 185.5 5.29993 185.8 5.39993C186.1 5.49993 186.4 5.59993 186.7 5.69993C187 5.79993 187.3 5.99993 187.5 6.19993C187.8 6.39993 188 6.59993 188.3 6.89993C188.4 6.99993 188.4 7.09993 188.5 7.19993C188.5 7.29993 188.4 7.39993 188.3 7.49993C188.1 7.69993 187.9 7.89993 187.7 7.99993C187.5 8.19993 187.3 8.39993 187.1 8.59993C187 8.69993 187 8.69993 186.9 8.69993C186.8 8.69993 186.8 8.69993 186.7 8.69993C186.6 8.69993 186.6 8.69993 186.5 8.59993C186.4 8.49993 186.4 8.49993 186.3 8.49993C186.3 8.39993 186 8.29993 185.8 8.19993C185.5 8.09993 185.3 8.09993 185.1 8.09993C184.8 8.09993 184.6 8.09993 184.4 8.19993C184.2 8.29993 184.2 8.39993 184.2 8.69993C184.2 8.89993 184.3 8.99993 184.4 9.09993C184.4 9.09993 184.5 9.19993 184.7 9.19993C184.8 9.29993 185 9.29993 185.2 9.29993C185.4 9.29993 185.5 9.39993 185.7 9.39993C186.2 9.59993 186.7 9.69993 187.1 9.89993C187.5 10.0999 187.9 10.2999 188.2 10.5999C188.5 10.8999 188.8 11.1999 188.9 11.5999C189.1 11.9999 189.2 12.4999 189.2 13.0999C189.2 13.6999 189.1 14.1999 188.9 14.5999C188.7 15.0999 188.4 15.3999 188 15.6999C187.6 15.9999 187.1 16.1999 186.6 16.3999C186.1 16.5999 185.5 16.5999 184.8 16.5999C184.4 16.5999 184.1 16.5999 183.7 16.4999C183.3 16.3999 183 16.2999 182.6 16.1999C182.3 16.0999 181.9 15.8999 181.6 15.6999C181.3 15.4999 181 15.1999 180.8 14.8999C180.7 14.7999 180.7 14.6999 180.7 14.5999C180.7 14.4999 180.7 14.3999 180.7 14.2999C180.7 14.1999 180.7 14.0999 180.8 14.0999C180.8 13.9999 180.9 13.9999 181 13.8999L182.1 12.7999C182.2 12.6999 182.4 12.5999 182.5 12.6999C182.3 12.8999 182.5 12.9999 182.6 13.1999Z" fill="white"/>
<path d="M200.3 15.2999C199.8 15.7999 199.2 16.0999 198.6 16.3999C198 16.6999 197.3 16.7999 196.6 16.7999C195.8 16.7999 195.1 16.6999 194.4 16.3999C193.7 16.0999 193.1 15.6999 192.5 15.1999C192 14.6999 191.5 14.0999 191.2 13.3999C190.9 12.6999 190.7 11.9999 190.7 11.0999C190.7 10.5999 190.8 10.0999 190.9 9.5999C191 9.0999 191.2 8.6999 191.4 8.1999C191.6 7.7999 191.9 7.3999 192.2 7.0999C192.5 6.7999 192.9 6.4999 193.3 6.1999C193.7 5.9999 194.1 5.7999 194.6 5.5999C195.1 5.4999 195.6 5.3999 196.1 5.3999C196.6 5.3999 197 5.4999 197.5 5.5999C198 5.6999 198.4 5.8999 198.8 6.0999C199.2 6.2999 199.6 6.5999 199.9 6.8999C200.2 7.1999 200.5 7.5999 200.7 7.9999C200.9 8.3999 201.1 8.7999 201.3 9.1999C201.4 9.5999 201.5 10.0999 201.5 10.4999C201.5 10.7999 201.5 10.9999 201.5 11.1999C201.5 11.3999 201.4 11.4999 201.4 11.6999C201.3 11.7999 201.2 11.8999 201 11.8999C200.8 11.8999 200.5 11.9999 200.2 11.9999H194C194.1 12.3999 194.2 12.6999 194.4 12.8999C194.6 13.0999 194.8 13.2999 195 13.4999C195.2 13.5999 195.5 13.7999 195.7 13.7999C196 13.8999 196.2 13.8999 196.4 13.8999C196.6 13.8999 196.8 13.8999 197 13.7999C197.2 13.7999 197.4 13.6999 197.6 13.5999C197.8 13.4999 198 13.3999 198.2 13.2999C198.4 13.1999 198.5 13.0999 198.6 12.9999C198.7 12.8999 198.8 12.8999 198.8 12.7999C198.9 12.7999 198.9 12.6999 199 12.6999C199.1 12.6999 199.2 12.6999 199.2 12.7999C199.3 12.8999 199.4 12.8999 199.5 12.9999L200.4 13.9999C200.5 14.0999 200.5 14.0999 200.5 14.1999C200.5 14.2999 200.5 14.2999 200.5 14.3999C200.5 14.4999 200.5 14.5999 200.4 14.6999C200.4 15.0999 200.3 15.1999 200.3 15.2999ZM196.1 8.0999C195.9 8.0999 195.7 8.0999 195.4 8.1999C195.2 8.2999 195 8.3999 194.8 8.5999C194.6 8.7999 194.4 8.8999 194.3 9.0999C194.2 9.1999 194.1 9.3999 194 9.5999H198.4C198.3 9.3999 198.2 9.1999 198 8.9999C197.9 8.7999 197.7 8.5999 197.5 8.4999C197.3 8.3999 197.1 8.1999 196.9 8.1999C196.7 8.0999 196.4 8.0999 196.1 8.0999Z" fill="white"/>
<path d="M211.2 15.4999C211 15.6999 210.9 15.7999 210.7 15.9999C210.5 16.1999 210.3 16.2999 210 16.3999C209.8 16.4999 209.5 16.5999 209.2 16.6999C208.9 16.7999 208.6 16.7999 208.3 16.7999C207.5 16.7999 206.8 16.6999 206.1 16.3999C205.4 16.0999 204.9 15.6999 204.4 15.1999C203.9 14.6999 203.6 14.0999 203.3 13.3999C203 12.6999 202.9 11.9999 202.9 11.1999C202.9 10.3999 203 9.59993 203.3 8.99993C203.6 8.29993 203.9 7.69993 204.4 7.19993C204.9 6.69993 205.4 6.29993 206.1 5.99993C206.8 5.69993 207.5 5.59993 208.3 5.59993C208.6 5.59993 208.9 5.59993 209.2 5.69993C209.5 5.79993 209.7 5.79993 209.9 5.89993C210.1 5.99993 210.3 6.09993 210.5 6.29993C210.7 6.39993 210.9 6.59993 211 6.79993V2.99993C211 2.79993 211.1 2.69993 211.2 2.49993C211.3 2.39993 211.5 2.29993 211.7 2.29993H213.7C213.8 2.29993 213.9 2.29993 213.9 2.29993C214 2.29993 214.1 2.39993 214.1 2.39993C214.2 2.49993 214.2 2.49993 214.3 2.59993C214.3 2.69993 214.4 2.79993 214.4 2.89993V15.8999C214.4 16.2999 214.2 16.5999 213.7 16.5999H212C211.9 16.5999 211.8 16.5999 211.7 16.5999C211.6 16.5999 211.6 16.4999 211.5 16.4999C211.5 16.3999 211.4 16.3999 211.4 16.2999C211.4 16.1999 211.3 16.0999 211.3 15.9999L211.2 15.4999ZM206.1 11.0999C206.1 11.4999 206.2 11.7999 206.3 12.1999C206.4 12.4999 206.6 12.7999 206.8 13.0999C207 13.2999 207.3 13.4999 207.6 13.6999C207.9 13.7999 208.3 13.8999 208.6 13.8999C209 13.8999 209.3 13.7999 209.6 13.6999C209.9 13.5999 210.2 13.3999 210.5 13.0999C210.7 12.8999 210.9 12.5999 211.1 12.2999C211.2 11.9999 211.3 11.5999 211.3 11.2999V11.0999C211.3 10.6999 211.2 10.3999 211.1 9.99993C211 9.69993 210.8 9.39993 210.5 9.09993C210.3 8.79993 210 8.59993 209.6 8.49993C209.3 8.39993 208.9 8.29993 208.5 8.29993C208.1 8.29993 207.8 8.39993 207.5 8.49993C207.2 8.59993 206.9 8.79993 206.7 9.09993C206.5 9.39993 206.3 9.59993 206.2 9.99993C206.1 10.3999 206.1 10.6999 206.1 11.0999Z" fill="white"/>
</g>
<defs>
<linearGradient id="paint0_linear_409_1205" x1="97.508" y1="8.99479" x2="129.552" y2="9.12669" gradientUnits="userSpaceOnUse">
<stop stop-color="white" stop-opacity="0.4"/>
<stop offset="1" stop-color="white"/>
</linearGradient>
<linearGradient id="paint1_linear_409_1205" x1="97.5084" y1="8.88629" x2="129.552" y2="9.01819" gradientUnits="userSpaceOnUse">
<stop stop-color="white" stop-opacity="0.4"/>
<stop offset="1" stop-color="white"/>
</linearGradient>
<linearGradient id="paint2_linear_409_1205" x1="97.5081" y1="8.93805" x2="129.552" y2="9.06985" gradientUnits="userSpaceOnUse">
<stop stop-color="white" stop-opacity="0.4"/>
<stop offset="1" stop-color="white"/>
</linearGradient>
<clipPath id="clip0_409_1205">
<rect width="114.4" height="15.6" fill="white" transform="translate(100 1.19995)"/>
</clipPath>
</defs>
</svg>
